<?xml version="1.0" standalone="no"?>
<!DOCTYPE svg PUBLIC "-//W3C//DTD SVG 20010904//EN"
 "http://www.w3.org/TR/2001/REC-SVG-20010904/DTD/svg10.dtd">
<svg version="1.0" xmlns="http://www.w3.org/2000/svg"
 width="1024.000000pt" height="1024.000000pt" viewBox="0 0 1024.000000 1024.000000"
 preserveAspectRatio="xMidYMid meet">

<g transform="translate(0.000000,1024.000000) scale(0.100000,-0.100000)"
fill="#000000" stroke="none">
<path d="M1768 10233 c6 -2 18 -2 25 0 6 3 1 5 -13 5 -14 0 -19 -2 -12 -5z"/>
<path d="M1810 10230 c0 -5 8 -14 18 -20 16 -10 16 -10 0 -20 -19 -12 -24 -36
-8 -42 14 -5 29 -115 16 -128 -7 -7 -6 -10 5 -10 19 0 44 -79 30 -93 -16 -16
-13 -67 4 -73 8 -4 15 -18 15 -34 0 -15 9 -35 20 -45 11 -10 20 -31 20 -47 0
-17 6 -31 15 -35 31 -11 30 -22 21 240 -4 103 -11 199 -17 213 -7 20 -6 32 6
50 31 47 22 54 -65 54 -44 0 -80 -4 -80 -10z"/>
<path d="M2010 10226 c0 -7 6 -19 14 -25 11 -9 15 -8 20 5 10 26 7 34 -14 34
-11 0 -20 -6 -20 -14z"/>
<path d="M3838 10232 c-1 -4 -15 -17 -30 -28 -25 -20 -108 -118 -108 -128 0
-2 -15 -31 -33 -63 -46 -81 -60 -123 -46 -139 8 -10 7 -19 -5 -36 -9 -12 -15
-32 -15 -43 1 -15 2 -16 6 -3 4 16 33 34 33 20 0 -4 -25 -45 -55 -91 -30 -46
-54 -89 -53 -95 3 -18 -30 -114 -46 -138 -9 -12 -16 -28 -16 -36 0 -14 -31
-90 -55 -134 -17 -30 -20 -52 -5 -43 13 8 13 0 -4 -65 -8 -30 -14 -66 -14 -80
0 -29 -40 -102 -52 -95 -4 3 -15 -6 -24 -20 -19 -29 -11 -33 16 -8 25 22 24
-1 -1 -33 -11 -14 -22 -43 -26 -66 -4 -23 -16 -55 -26 -72 -10 -17 -19 -46
-19 -64 0 -54 -30 -143 -56 -167 -13 -12 -24 -27 -24 -34 0 -6 -4 -11 -8 -11
-12 0 -32 -46 -32 -73 0 -13 -5 -28 -12 -35 -6 -6 -8 -15 -4 -19 9 -10 26 17
26 43 0 20 59 109 67 101 2 -3 -6 -43 -18 -90 -17 -68 -29 -94 -59 -128 -50
-57 -75 -120 -62 -157 6 -17 6 -36 -1 -52 -5 -14 -13 -34 -17 -45 -4 -11 -13
-33 -19 -48 -14 -34 -14 -40 -1 -32 13 8 11 -125 -3 -150 -6 -11 -12 -45 -12
-75 -1 -34 -9 -71 -22 -97 -11 -23 -18 -53 -16 -66 3 -16 -1 -26 -11 -30 -22
-9 -28 7 -14 38 9 19 9 28 0 37 -17 17 -26 2 -25 -40 1 -20 -2 -41 -7 -47 -6
-8 -30 -103 -30 -120 0 -3 5 -5 10 -5 6 0 10 8 10 19 0 31 21 81 32 75 6 -4
15 0 20 7 7 10 8 9 3 -6 -4 -11 -12 -40 -17 -65 -6 -25 -17 -54 -24 -65 -8
-11 -14 -29 -14 -40 0 -21 -22 -91 -44 -140 -41 -92 -62 -190 -45 -211 13 -16
-4 -44 -27 -44 -8 0 -14 -4 -14 -10 0 -5 7 -10 15 -10 8 0 15 5 15 11 0 5 5 7
11 3 7 -4 7 -10 1 -16 -14 -14 -4 -38 15 -38 12 0 14 -7 9 -27 -3 -16 -8 -57
-10 -93 -2 -36 -10 -82 -19 -102 -9 -21 -12 -37 -7 -35 12 3 13 -8 5 -58 -6
-42 -25 -64 -25 -30 0 8 -4 15 -9 15 -12 0 -34 -57 -26 -69 7 -12 -7 -43 -21
-43 -21 -1 -53 -18 -80 -43 -15 -14 -34 -23 -42 -20 -7 3 -18 5 -23 5 -5 0 -9
18 -9 40 0 32 -4 40 -18 40 -11 0 -24 -11 -30 -25 -12 -27 -27 -32 -38 -14 -5
8 -9 8 -14 -1 -6 -9 -11 -7 -19 9 -7 11 -17 21 -23 21 -6 0 -16 8 -23 17 -11
15 -13 15 -24 -5 -13 -24 -41 -30 -41 -9 0 6 -8 -3 -17 -21 -14 -28 -18 -31
-32 -19 -19 16 -51 11 -51 -9 0 -8 -10 -14 -24 -14 -13 0 -27 -8 -30 -17 -6
-14 -10 -12 -25 13 -22 37 -21 106 2 132 23 26 21 33 -6 23 -13 -5 -30 -5 -37
-1 -22 14 -39 -7 -31 -38 5 -17 15 -28 30 -30 12 -2 21 -7 19 -12 -18 -48 -56
-109 -67 -110 -8 0 -27 12 -42 26 -20 19 -34 25 -51 20 -40 -10 -48 -21 -54
-72 -4 -28 -15 -57 -26 -67 -19 -19 -38 -15 -38 7 0 8 -9 16 -20 19 -28 7 -26
-25 2 -38 13 -6 28 -21 35 -35 7 -14 13 -19 13 -12 0 7 11 2 27 -13 15 -14 36
-25 46 -25 13 0 -1 -19 -45 -63 -60 -60 -109 -91 -153 -98 -28 -5 -85 20 -85
37 0 20 -50 30 -61 13 -14 -22 -11 -29 16 -39 33 -13 35 -57 3 -69 -13 -5 -22
-11 -20 -15 1 -3 -1 -5 -5 -4 -5 2 -7 6 -6 10 2 5 -2 8 -8 8 -7 0 -9 10 -5 28
6 24 3 22 -21 -14 -15 -22 -38 -50 -50 -62 -18 -17 -23 -33 -23 -70 0 -27 3
-51 6 -55 4 -3 26 7 50 23 23 17 46 30 50 30 4 0 15 6 23 14 20 17 129 36 209
36 96 0 77 -31 -28 -45 -81 -10 -161 -30 -196 -48 -16 -8 -46 -18 -67 -22 -38
-7 -53 -29 -43 -62 3 -10 12 -72 20 -138 9 -66 25 -190 36 -275 12 -85 25
-191 30 -235 23 -216 52 -419 63 -447 10 -25 19 -31 52 -34 22 -3 65 -13 95
-23 46 -15 55 -22 58 -44 3 -24 7 -27 43 -27 32 0 40 -3 37 -16 -5 -28 -35
-41 -59 -26 -18 12 -23 12 -30 1 -12 -20 -3 -55 12 -50 8 2 19 4 24 5 20 5
101 17 135 20 30 3 35 7 38 32 4 33 17 44 53 44 15 0 32 7 39 15 14 17 90 21
90 5 0 -5 -12 -10 -26 -10 -14 0 -23 -4 -20 -9 8 -12 257 -7 281 7 40 22 88
42 102 42 7 0 13 -9 13 -21 0 -12 4 -18 11 -13 19 11 81 23 95 17 8 -3 14 -13
14 -22 1 -14 2 -14 11 1 9 16 13 16 32 4 37 -23 67 -29 67 -13 0 8 -7 20 -15
27 -9 7 -14 19 -11 27 3 7 1 13 -5 13 -6 0 -7 5 -4 10 8 13 48 13 62 -1 8 -8
17 -7 34 2 l24 14 -22 3 c-25 4 -32 22 -9 22 8 0 22 3 32 7 13 5 16 3 11 -10
-3 -9 -4 -24 -1 -32 7 -16 49 -21 58 -6 3 4 17 6 30 4 18 -4 26 -13 28 -32 5
-42 23 -30 20 14 -2 22 -6 48 -9 59 -3 12 -1 16 6 12 6 -4 11 -15 11 -24 0 -9
11 -27 24 -39 24 -24 46 -30 46 -14 0 13 25 20 38 12 8 -5 9 -17 3 -39 -6 -19
-6 -34 0 -37 19 -12 8 -25 -20 -25 -25 0 -28 3 -24 21 6 21 5 21 -21 4 -31
-21 -50 -51 -40 -66 8 -14 -15 -59 -30 -59 -7 0 -19 -9 -29 -20 -9 -11 -23
-20 -30 -20 -7 0 -23 -9 -35 -20 -11 -11 -37 -29 -56 -40 -29 -15 -36 -17 -36
-5 0 7 5 17 10 20 6 3 10 12 10 20 0 24 -45 -29 -56 -66 -7 -24 -16 -34 -29
-32 -10 1 -24 -5 -32 -13 -8 -8 -21 -14 -28 -14 -25 0 -26 -18 -4 -55 17 -28
19 -41 11 -58 -11 -23 -139 -185 -278 -351 -63 -76 -180 -242 -217 -310 -16
-28 -57 -94 -93 -147 -35 -53 -64 -99 -64 -103 0 -4 -22 -45 -50 -91 -27 -46
-59 -106 -70 -132 -12 -26 -35 -75 -50 -108 -16 -33 -36 -82 -46 -110 -9 -27
-43 -105 -75 -173 -33 -68 -59 -125 -59 -128 0 -16 -145 -226 -178 -259 -75
-73 -140 -126 -145 -118 -5 9 15 165 33 248 5 28 12 129 14 225 3 96 2 162 0
145 -19 -117 -47 -314 -55 -385 -10 -96 -29 -180 -40 -180 -5 0 -8 -12 -7 -27
1 -31 -10 -101 -17 -113 -2 -4 7 -5 20 -2 29 5 71 -19 80 -47 4 -13 12 -17 24
-14 24 6 107 -42 128 -73 10 -15 13 -33 8 -54 -6 -26 -4 -30 14 -30 30 0 153
-72 181 -105 13 -16 12 -20 -13 -40 -16 -12 -61 -32 -100 -44 -102 -32 -124
-40 -195 -73 -107 -48 -138 -35 -123 48 12 66 7 67 -14 3 -16 -48 -19 -51 -31
-34 -8 10 -14 27 -14 37 0 31 40 125 65 152 30 32 32 46 7 46 -10 0 -23 5 -29
11 -9 9 -13 2 -19 -27 -3 -22 -10 -43 -14 -49 -4 -5 -10 -26 -14 -45 -8 -49
-11 -58 -19 -66 -4 -4 -7 -22 -7 -41 0 -22 -5 -33 -14 -33 -10 0 -12 -7 -8
-22 3 -13 1 -19 -5 -15 -6 4 -8 -3 -5 -18 3 -18 0 -25 -11 -25 -15 0 -26 -36
-28 -99 -2 -31 -3 -32 -6 -8 -6 42 -28 27 -28 -19 0 -21 -6 -43 -13 -47 -7 -5
-10 -18 -6 -33 3 -13 2 -24 -3 -24 -9 0 -17 -31 -38 -137 -6 -31 -7 -31 -25
-13 -16 16 -18 37 -19 196 -1 98 -5 182 -10 187 -5 5 -12 -92 -16 -230 -3
-131 -10 -319 -14 -418 -5 -99 -4 -181 1 -183 4 -2 8 -13 7 -25 0 -21 -1 -21
-8 -3 -4 12 -13 -65 -20 -180 -6 -109 -18 -242 -25 -294 -8 -52 -13 -96 -11
-98 1 -1 58 -1 126 0 l123 3 -26 28 c-15 16 -29 46 -33 68 -10 57 -25 48 -25
-16 0 -59 -14 -72 -31 -28 -11 29 5 161 21 177 12 12 38 -10 42 -37 3 -17 10
-10 30 34 14 31 36 64 49 73 32 22 81 20 121 -4 61 -35 116 -171 105 -255 l-7
-45 46 0 c28 0 43 4 39 10 -16 25 -33 193 -28 280 5 111 6 235 2 286 -2 21 2
39 10 43 10 7 10 12 0 28 -20 34 -3 70 56 113 29 22 71 61 92 87 21 26 51 60
66 76 26 27 30 29 44 14 25 -25 1 -69 -94 -165 -75 -78 -83 -89 -83 -124 0
-22 -5 -49 -11 -60 -12 -22 -19 -178 -8 -178 13 0 59 53 97 113 65 100 152
379 152 485 0 56 -16 61 -81 25 -72 -39 -209 -195 -209 -239 0 -28 -15 -54
-31 -54 -4 0 -24 24 -45 53 -21 28 -56 68 -77 87 -80 72 -127 120 -127 129 0
6 20 33 45 61 31 35 47 63 51 90 4 22 11 43 15 46 5 3 9 15 9 28 0 12 6 31 14
41 13 18 14 18 21 -4 5 -18 9 -20 21 -10 11 9 14 8 14 -9 0 -11 -8 -23 -17
-26 -12 -5 -14 -9 -5 -18 14 -14 16 -38 3 -38 -5 0 -12 8 -14 18 -4 13 -5 12
-6 -5 0 -12 -17 -43 -37 -69 l-37 -48 79 -72 79 -72 86 83 c97 95 185 145 256
145 34 0 46 -5 67 -31 30 -36 33 -74 12 -189 -15 -81 -96 -329 -128 -395 -42
-83 -121 -191 -165 -225 -43 -33 -45 -36 -39 -75 20 -134 26 -164 40 -197 l16
-38 2584 0 c2058 0 2585 3 2588 13 5 13 -4 127 -21 282 -14 127 -40 399 -47
490 -4 39 -17 104 -31 145 -19 56 -27 102 -30 180 -2 58 -13 141 -23 185 -10
44 -23 100 -29 125 -5 25 -15 97 -21 160 -7 63 -21 171 -31 240 -61 394 -85
594 -94 785 -3 72 -12 175 -20 230 -48 349 -49 373 -32 411 9 19 17 46 17 60
0 27 -40 218 -71 334 -11 41 -29 113 -40 160 -12 47 -26 102 -32 123 -8 29 -8
44 1 58 7 10 12 22 12 26 0 5 -4 1 -10 -7 -16 -25 -23 -3 -10 34 17 51 25 38
25 -38 0 -61 1 -65 15 -45 20 25 30 15 30 -28 0 -22 4 -32 11 -28 6 4 7 19 4
35 -8 35 19 80 47 80 19 0 20 -4 14 -50 -6 -42 -4 -49 9 -44 10 4 15 0 15 -14
0 -12 5 -24 11 -28 8 -5 10 2 6 22 -23 128 -30 153 -40 147 -7 -4 -8 0 -4 11
4 10 7 29 7 43 0 16 7 27 20 30 11 3 20 10 20 15 0 6 -9 8 -20 5 -17 -4 -20 0
-20 24 l0 29 20 -20 c11 -11 28 -20 38 -19 10 0 12 3 5 6 -16 6 -16 28 -1 56
7 12 13 28 14 36 6 34 28 70 55 90 l29 22 0 -37 c0 -31 3 -36 20 -31 11 3 20
1 20 -5 0 -5 9 -7 19 -3 16 5 20 -1 25 -37 9 -65 9 -72 1 -90 -12 -29 24 -22
37 7 6 14 15 25 20 25 4 0 8 6 8 13 0 6 13 18 29 25 49 22 79 -7 72 -68 -1 -8
10 2 24 23 25 36 28 37 44 23 10 -9 23 -16 31 -16 7 0 23 -11 36 -25 27 -29
57 -34 52 -7 -2 9 -9 18 -16 18 -23 3 -24 4 -12 19 17 20 48 19 52 -2 2 -10
12 -18 22 -18 29 0 29 -18 1 -49 -14 -15 -25 -31 -25 -37 0 -21 29 -7 55 26
l27 36 40 -46 c46 -52 73 -66 135 -71 24 -2 58 -10 75 -18 18 -9 60 -22 92
-31 33 -8 64 -19 70 -25 5 -5 24 -10 41 -11 48 -1 135 -33 148 -55 37 -62 73
-114 80 -114 4 0 2 9 -5 19 -20 32 12 68 67 76 46 7 75 2 75 -13 0 -4 -15 -7
-32 -6 -20 1 -23 0 -9 -3 13 -3 26 -13 28 -24 7 -25 11 -24 35 7 14 17 26 23
37 18 28 -12 156 -22 166 -13 5 5 0 9 -13 9 -13 0 -34 7 -47 16 -16 10 -34 14
-51 10 -17 -5 -23 -3 -19 4 3 5 -2 10 -11 10 -13 0 -15 3 -7 11 9 9 28 9 75 1
35 -6 82 -14 105 -18 44 -6 69 -23 36 -25 -16 0 -16 -1 1 -8 19 -7 18 -8 -5
-15 l-24 -8 25 -7 c30 -9 30 -31 -1 -98 -71 -156 -177 -500 -220 -713 -10 -46
8 -336 20 -324 3 3 4 84 3 181 -3 156 -1 180 17 226 11 29 27 88 37 132 38
182 132 416 219 545 46 67 61 80 97 80 18 0 26 -4 23 -12 -4 -10 15 -14 67
-16 40 -2 77 -7 83 -12 5 -4 55 -10 111 -13 55 -3 120 -13 145 -21 24 -9 57
-16 72 -16 17 0 26 -4 22 -11 -4 -6 -20 -8 -38 -4 l-32 7 37 -26 c20 -14 42
-26 47 -26 20 0 11 -31 -11 -40 -13 -5 -17 -9 -9 -9 8 -1 23 -8 33 -18 10 -9
18 -12 18 -7 0 6 30 8 68 6 53 -3 72 0 84 12 14 13 17 14 22 1 7 -19 24 -19
72 1 l38 16 -38 13 c-20 7 -40 16 -43 19 -10 10 27 18 55 12 15 -3 49 -10 76
-16 28 -6 54 -16 58 -23 6 -9 8 -9 8 1 0 19 34 14 63 -8 14 -11 39 -23 56 -26
17 -4 31 -12 31 -18 0 -6 14 -20 32 -30 32 -20 52 -35 122 -96 23 -20 50 -42
61 -50 l20 -14 -20 24 c-25 31 -48 71 -43 76 2 2 26 -17 53 -41 28 -25 53 -45
56 -45 3 0 12 -11 19 -24 7 -14 30 -32 50 -40 22 -9 59 -39 86 -71 26 -30 52
-55 56 -55 5 0 -1 19 -13 42 -18 36 -19 40 -4 28 18 -15 38 -54 40 -83 1 -10
11 -28 23 -40 24 -27 62 -101 62 -122 0 -8 5 -15 10 -15 6 0 10 9 10 20 0 11
-4 20 -10 20 -5 0 -10 12 -10 26 0 21 3 24 13 15 19 -15 28 -2 16 21 -6 11 -8
22 -5 25 3 3 10 -6 15 -21 6 -14 13 -26 16 -26 3 0 5 287 5 639 l0 638 -27 2
c-63 3 -123 1 -199 -5 -56 -5 -83 -3 -88 5 -4 6 -13 11 -21 11 -8 0 -26 5 -42
11 -16 7 -76 11 -140 10 l-112 -2 -14 33 c-20 44 -17 78 10 111 12 16 24 33
27 40 3 9 7 8 14 -2 7 -10 20 -12 46 -7 42 8 58 30 44 62 -11 24 -35 34 -85
34 -28 0 -33 4 -33 24 0 14 -10 30 -25 40 -18 12 -24 23 -20 36 3 10 1 21 -5
25 -15 9 -12 25 5 25 19 0 31 65 15 84 -17 21 -67 30 -99 16 -15 -6 -40 -31
-56 -56 -20 -31 -35 -44 -51 -44 -12 0 -26 -5 -30 -11 -4 -6 -7 -61 -7 -121 0
-93 2 -112 16 -120 21 -11 22 -48 2 -48 -8 0 -12 6 -9 14 4 10 -2 16 -18 18
-13 2 -23 10 -23 18 -1 8 -6 25 -13 37 -16 29 -15 43 3 43 12 0 13 4 5 19 -14
26 -13 64 2 79 9 9 9 12 -4 12 -20 0 -33 70 -15 82 9 6 9 10 -1 16 -18 12 -4
42 25 53 35 13 27 44 -12 45 -34 0 -75 20 -75 35 0 6 -8 8 -19 4 -13 -4 -20 0
-24 15 -3 11 -13 20 -24 20 -10 0 -27 7 -38 16 -29 22 -3 34 57 27 35 -4 48
-2 48 7 0 9 4 10 13 2 24 -21 80 -12 104 16 18 21 25 24 35 14 8 -8 45 -12
106 -12 93 0 132 -10 132 -33 0 -7 20 -18 44 -26 36 -10 48 -10 65 1 25 15 22
34 -5 31 -37 -5 -94 9 -94 22 0 19 21 24 143 29 59 3 125 10 145 15 44 11 193
11 186 0 -10 -16 27 -69 52 -75 24 -6 24 -7 8 -25 -13 -15 -14 -19 -3 -19 18
-1 68 -39 52 -40 -22 0 -14 -30 7 -30 17 0 20 7 20 44 0 26 -5 46 -12 49 -10
4 -10 6 0 6 9 1 12 34 12 131 0 147 9 132 -95 149 -44 8 -46 9 -14 10 19 0 40
6 47 13 9 9 15 9 24 0 25 -25 38 -13 38 33 0 33 -4 45 -15 45 -8 0 -15 4 -15
9 0 5 -9 11 -20 14 -11 3 -20 12 -20 21 0 12 10 16 35 16 l35 0 0 275 c-1 172
-5 277 -11 281 -6 4 -6 11 2 21 10 12 10 16 -2 24 -12 7 -12 9 0 9 20 0 8 10
-19 15 -36 7 -37 15 -2 15 l32 0 0 287 c0 286 0 286 -20 268 -11 -10 -25 -36
-32 -57 -9 -30 -15 -37 -30 -32 -12 3 -18 0 -18 -10 0 -9 -7 -16 -15 -16 -8 0
-15 -5 -15 -11 0 -7 -20 -10 -52 -9 -72 3 -72 3 -55 -23 19 -29 16 -54 -12
-99 -27 -44 -31 -45 -54 -18 -21 25 -33 25 -39 2 -6 -23 -20 -24 -138 -7 -52
7 -125 16 -161 20 l-66 6 3 142 c2 78 5 156 8 172 2 17 6 72 7 124 3 90 13
121 40 121 5 0 11 0 14 0 3 0 4 -2 3 -5 -2 -3 12 -14 30 -25 17 -11 32 -24 32
-29 0 -5 16 -19 35 -31 20 -12 51 -42 70 -67 54 -71 186 -131 298 -136 38 -2
49 6 21 17 -9 4 -12 11 -7 18 25 39 41 193 24 226 -5 9 -12 25 -15 35 -3 9
-15 17 -28 17 -18 0 -27 10 -40 43 -10 23 -18 46 -18 50 0 14 58 7 64 -8 3 -8
11 -15 19 -15 7 0 28 -16 47 -35 19 -19 39 -35 44 -35 6 0 20 -10 33 -22 l23
-21 0 61 c0 52 -3 62 -17 62 -10 0 -31 16 -46 35 -21 26 -36 35 -57 35 -17 0
-30 5 -30 11 0 6 -7 9 -15 5 -20 -7 -95 32 -95 50 0 8 -6 11 -15 8 -9 -4 -18
1 -21 11 -4 9 -18 28 -30 41 -26 25 -31 44 -11 44 17 0 107 -58 107 -69 0 -5
9 -13 20 -16 11 -3 20 -13 20 -21 0 -19 61 -44 78 -31 6 5 12 22 12 38 0 15 4
39 10 53 7 18 6 28 -3 33 -16 11 -47 78 -47 103 0 11 -7 20 -15 20 -9 0 -18 7
-21 15 -11 28 -73 56 -111 49 -26 -5 -39 -2 -56 14 -26 23 -82 38 -91 23 -4
-6 -16 -4 -34 5 -33 17 -91 18 -113 1 -21 -16 -39 -51 -39 -76 0 -24 -18 -37
-32 -23 -26 26 55 132 125 165 40 19 137 22 171 5 30 -16 138 -28 156 -18 12
6 16 17 13 34 -5 23 -20 33 -105 70 -22 9 -44 28 -53 46 l-16 31 38 -6 c21 -3
75 -20 121 -37 45 -17 85 -28 89 -24 12 11 -11 40 -46 58 -18 9 -43 26 -55 37
-12 12 -30 21 -38 21 -10 0 -21 14 -28 35 -6 19 -17 35 -24 35 -8 0 -38 23
-67 50 -34 32 -70 55 -96 62 -27 8 -43 18 -43 28 -1 8 -9 25 -19 37 -15 18
-25 22 -51 17 -40 -9 -71 8 -95 52 -16 29 -23 34 -45 29 -26 -6 -33 2 -80 85
-7 11 -15 12 -37 4 -25 -8 -29 -16 -35 -64 -5 -41 -3 -59 8 -71 8 -8 14 -21
14 -27 0 -7 5 -12 10 -12 21 0 9 -18 -20 -30 -20 -8 -49 -10 -86 -5 -45 5 -55
4 -52 -7 6 -17 63 -37 110 -37 41 -1 59 -16 28 -24 -11 -3 -23 -1 -26 5 -4 7
-39 8 -98 3 -50 -4 -126 -7 -168 -6 -64 1 -77 -1 -72 -13 8 -21 57 -36 141
-43 40 -3 78 -12 83 -18 7 -8 25 -11 49 -8 41 6 141 -21 141 -38 0 -5 6 -9 14
-9 8 0 16 -7 20 -15 3 -8 12 -15 21 -15 18 0 20 -36 3 -43 -7 -2 -41 0 -76 6
-45 7 -69 7 -85 -1 -12 -6 -42 -16 -67 -22 -72 -18 -80 -21 -80 -30 0 -5 43
-8 95 -8 l94 2 39 -45 c21 -24 48 -61 60 -82 l22 -39 -23 -19 c-14 -10 -27
-32 -30 -49 -8 -38 -17 -38 -59 0 -18 17 -38 30 -45 30 -17 0 -17 46 0 57 6 4
25 13 42 18 32 11 48 45 20 45 -9 0 -26 -5 -38 -12 -21 -11 -56 -19 -162 -36
-27 -4 -90 -5 -139 -1 -50 4 -99 3 -111 -1 -32 -12 -128 -107 -123 -122 3 -7
13 -14 24 -14 10 -1 39 -7 64 -13 69 -16 119 -13 149 9 16 10 47 24 71 29 23
5 55 21 70 36 l28 27 54 -25 c56 -26 208 -164 208 -188 -1 -14 -103 -89 -121
-89 -6 0 -10 15 -9 33 3 58 0 66 -37 92 -28 19 -50 25 -88 25 -66 0 -139 -23
-143 -44 -2 -9 1 -16 7 -16 19 0 12 -36 -14 -64 -13 -14 -29 -26 -35 -26 -19
0 -10 -32 10 -37 14 -4 19 -11 15 -23 -9 -27 32 -70 66 -70 35 0 35 -6 7 -65
-20 -40 -20 -47 -7 -60 20 -20 117 -37 154 -27 19 5 45 28 70 59 22 29 48 52
57 52 9 1 27 -14 40 -31 22 -32 23 -40 21 -193 -3 -167 -19 -332 -34 -351 -5
-6 -8 -27 -7 -45 l3 -34 -50 -3 c-165 -8 -305 -39 -305 -67 0 -7 -7 -18 -15
-25 -12 -10 -15 -10 -15 4 0 18 -15 22 -25 6 -12 -20 -25 -9 -19 15 6 25 -10
36 -19 13 -4 -8 -6 -7 -6 3 -1 9 6 19 14 23 22 8 18 35 -5 35 -11 1 -29 1 -40
2 -11 0 -20 6 -20 12 0 8 -3 7 -9 -2 -5 -7 -14 -10 -20 -6 -9 5 -8 13 4 31 15
23 14 25 -17 44 -18 11 -40 20 -48 20 -9 0 -21 5 -27 11 -8 8 -65 10 -192 7
-102 -3 -181 -1 -181 4 0 5 -17 6 -37 2 -34 -6 -37 -5 -25 9 8 9 9 18 3 21 -5
3 -12 0 -15 -6 -3 -7 -3 3 0 22 6 45 -8 69 -30 51 -13 -11 -17 -7 -31 24 -8
21 -15 44 -15 52 0 12 -3 13 -14 4 -14 -12 -21 -2 -33 49 -5 17 -15 266 -14
320 0 19 1 62 2 95 1 33 -6 86 -14 117 -8 31 -13 59 -10 62 3 2 -1 31 -8 63
-6 32 -13 86 -14 120 -1 53 1 59 12 45 12 -15 13 -9 7 38 -3 30 -12 62 -20 71
-8 8 -14 23 -14 33 0 9 -7 27 -15 39 -8 13 -19 57 -24 98 -5 40 -15 96 -21
122 -9 35 -9 52 -1 60 7 7 12 5 17 -7 5 -12 10 -14 19 -6 18 15 31 -6 16 -24
-18 -21 66 -86 102 -79 27 5 33 13 20 26 -3 4 -12 2 -20 -5 -11 -8 -17 -7 -28
8 -8 10 -15 24 -15 30 0 7 -6 14 -14 17 -18 7 -50 72 -42 85 3 5 -3 17 -14 27
-11 10 -20 24 -20 32 0 7 -11 23 -25 35 -30 26 -32 38 -5 38 32 0 23 20 -15
36 -23 9 -35 21 -35 34 0 23 10 25 29 8 11 -11 12 -10 8 2 -3 8 -11 41 -18 73
-13 55 -29 77 -29 38 0 -11 -5 -23 -10 -26 -7 -4 -9 2 -5 18 5 18 2 28 -12 36
-13 8 -15 13 -6 19 15 10 6 82 -10 79 -6 -1 -22 34 -37 78 -15 44 -36 90 -46
103 -11 13 -27 32 -36 44 -10 12 -18 29 -18 38 0 10 -7 34 -15 53 -8 20 -15
39 -15 42 0 12 39 -35 45 -54 3 -12 10 -21 15 -21 5 0 10 -12 12 -27 2 -16 10
-29 20 -31 15 -3 15 1 -3 35 -10 20 -19 45 -19 54 0 9 -7 19 -15 23 -8 3 -15
16 -15 30 0 25 -25 43 -34 23 -2 -7 -5 -2 -5 9 -1 21 18 36 46 38 7 1 13 4 13
9 0 4 0 12 0 18 0 6 -7 9 -15 5 -10 -4 -20 6 -30 30 -16 39 -34 37 -36 -4 -1
-25 -2 -24 -11 8 -5 19 -12 49 -14 65 l-5 30 18 -21 c22 -26 92 -40 99 -19 9
23 -15 55 -41 55 -14 0 -29 8 -35 20 -6 11 -15 18 -20 15 -20 -12 -40 8 -38
39 1 18 -6 43 -15 56 -9 14 -17 35 -17 47 0 23 -38 70 -52 66 -4 -2 -10 8 -14
21 -3 14 -13 27 -21 30 -9 4 -13 13 -9 21 3 10 -3 19 -17 26 -12 5 -31 30 -41
56 -11 25 -30 55 -43 66 -12 11 -23 26 -23 33 0 6 -7 17 -15 24 -8 7 -15 28
-15 48 0 19 -8 44 -17 54 -9 11 -29 42 -44 71 -23 45 -30 52 -53 49 -18 -2
-26 2 -26 13 0 8 -4 15 -10 15 -5 0 -10 5 -10 11 0 13 -35 58 -95 121 -25 26
-45 54 -45 62 0 9 -6 16 -14 16 -8 0 -16 7 -20 15 -5 13 -198 15 -1660 15
-910 0 -1656 -3 -1658 -8z m-136 -234 c-7 -7 -12 -8 -12 -2 0 14 12 26 19 19
2 -3 -1 -11 -7 -17z m1894 -27 c-3 -23 -2 -42 4 -46 5 -3 10 -21 10 -38 0 -18
4 -38 9 -46 16 -25 29 -2 30 55 0 31 3 59 6 62 3 3 5 -7 5 -21 0 -33 16 -34
47 -5 13 12 23 16 23 10 0 -6 -4 -13 -9 -16 -13 -8 -6 -82 14 -151 9 -33 16
-73 15 -90 -3 -37 -3 -41 9 -195 27 -360 41 -401 40 -119 -1 109 1 202 5 207
8 14 -4 43 -15 36 -12 -7 -11 -2 6 33 11 21 17 74 20 168 3 76 6 140 8 142 4
3 11 -159 23 -472 2 -55 6 -113 9 -130 3 -16 0 -62 -7 -102 -10 -63 -8 -96 6
-82 5 4 21 232 31 424 3 55 8 114 11 130 2 17 6 39 8 50 2 12 10 19 20 19 13
-2 16 6 14 33 -1 19 -8 38 -15 42 -15 8 -8 41 8 41 5 0 9 12 10 28 0 15 4 35
8 46 6 15 12 7 33 -40 l26 -57 4 34 4 34 18 -39 c23 -50 31 -40 12 15 -18 51
-20 79 -6 79 6 0 10 -10 10 -22 0 -13 5 -30 10 -38 8 -13 13 -13 41 3 17 9 35
17 40 17 12 0 43 -61 41 -80 -1 -8 12 -22 30 -31 35 -17 56 -61 57 -121 1 -20
5 -39 10 -43 5 -3 13 -19 16 -36 5 -21 10 -27 15 -19 4 7 4 27 -1 44 -5 17 -9
42 -9 56 l0 25 15 -29 c8 -15 15 -35 15 -43 0 -8 7 -27 15 -42 12 -24 12 -31
2 -40 -9 -7 -12 -27 -10 -58 6 -73 10 -70 29 25 2 12 12 22 20 22 12 0 15 6
10 25 -4 14 -2 25 4 25 5 0 11 15 11 33 1 22 3 17 8 -18 8 -66 6 -421 -3 -507
-4 -43 -3 -69 4 -73 6 -4 10 10 10 39 0 24 5 57 11 73 6 15 12 55 14 88 9 169
26 350 35 359 13 13 30 -36 30 -89 0 -24 4 -46 10 -50 12 -8 50 31 46 47 -1 7
-1 10 1 6 3 -5 13 -8 24 -8 10 0 19 -4 19 -8 0 -15 79 -92 94 -92 10 0 16 -9
16 -22 0 -17 3 -19 12 -10 17 17 28 15 28 -7 0 -10 7 -24 15 -31 22 -18 18
-38 -7 -42 -13 -2 -24 -11 -26 -22 -4 -17 0 -18 37 -12 46 7 45 8 31 -28 -7
-20 -6 -26 5 -26 8 0 16 -14 20 -32 3 -18 9 -54 14 -80 4 -25 4 -52 0 -60 -14
-21 -10 -48 6 -48 8 0 16 -8 17 -17 0 -10 2 -31 3 -48 2 -16 8 -58 14 -92 7
-41 8 -76 2 -103 -6 -25 -5 -42 1 -46 5 -3 7 -13 4 -21 -8 -20 11 -53 30 -53
9 0 12 -5 8 -11 -4 -7 -7 -24 -6 -40 1 -42 -51 -69 -131 -69 -68 0 -219 -38
-261 -65 -29 -20 -35 -47 -8 -43 13 2 16 -3 14 -24 -2 -20 1 -28 12 -28 8 0
16 -10 18 -22 2 -17 10 -23 28 -23 14 0 28 -4 31 -8 4 -5 51 -13 105 -17 173
-15 192 -20 226 -56 23 -24 48 -37 97 -49 36 -10 80 -22 96 -27 185 -64 330
-214 368 -384 l13 -58 58 -11 c32 -7 62 -18 67 -26 13 -21 11 -45 -6 -59 -20
-17 -31 11 -15 40 11 20 10 21 -9 11 -11 -6 -31 -11 -45 -11 -20 0 -26 -5 -26
-23 0 -13 -4 -27 -9 -32 -5 -6 -14 -43 -20 -84 -23 -148 -64 -238 -187 -406
-63 -87 -194 -225 -250 -263 -14 -9 -15 -14 -6 -18 16 -7 16 -24 -1 -24 -7 0
-18 -9 -25 -20 -10 -17 -10 -20 4 -20 11 0 14 -5 9 -17 -4 -10 -9 -70 -11
-133 -3 -120 -11 -178 -23 -195 -4 -5 -14 -32 -21 -60 -7 -27 -17 -56 -23 -62
-5 -7 -10 -43 -11 -80 -2 -48 -9 -81 -24 -110 -12 -23 -21 -52 -21 -65 1 -13
-6 -43 -16 -68 -10 -25 -18 -57 -20 -73 -1 -15 -10 -34 -21 -42 -18 -13 -18
-14 -1 -20 21 -9 22 -31 2 -39 -8 -3 -15 -18 -15 -33 0 -17 -8 -33 -20 -41
-11 -7 -20 -22 -20 -35 0 -12 -7 -32 -15 -44 -9 -12 -15 -26 -14 -30 4 -22 -4
-35 -41 -69 -22 -21 -40 -44 -40 -52 0 -8 -13 -31 -30 -52 -33 -41 -37 -56
-17 -63 6 -3 3 -6 -9 -6 -25 -1 -44 -19 -44 -43 0 -10 -11 -23 -25 -28 -15 -6
-27 -20 -31 -37 -8 -32 -43 -75 -55 -67 -5 3 -16 -11 -26 -30 -9 -20 -21 -36
-25 -36 -5 0 -6 -5 -3 -11 4 -6 0 -9 -11 -7 -13 2 -18 -2 -16 -13 1 -10 -17
-31 -49 -54 -65 -46 -89 -55 -113 -41 -14 8 -20 8 -23 -1 -3 -7 -13 -13 -24
-13 -21 0 -26 -15 -8 -26 6 -3 16 -1 22 5 6 6 16 11 21 11 15 -1 -34 -40 -49
-40 -7 0 -15 -7 -19 -15 -3 -8 -12 -15 -20 -15 -8 0 -16 -3 -18 -8 -1 -4 -23
-23 -48 -41 -25 -19 -68 -58 -96 -85 -28 -28 -72 -67 -97 -86 -55 -41 -47 -50
19 -21 26 12 55 21 65 21 28 0 33 -36 10 -75 -11 -19 -18 -41 -15 -49 3 -8 1
-17 -5 -21 -17 -10 -13 -28 4 -21 19 7 19 -13 0 -38 -8 -11 -15 -27 -15 -35 0
-9 -9 -27 -20 -41 -35 -44 -140 -271 -139 -298 l2 -27 4 25 c6 28 22 52 32 46
6 -4 13 9 41 81 6 18 23 39 36 48 l25 16 -21 -41 c-12 -23 -19 -48 -16 -56 3
-7 -6 -55 -19 -106 -13 -51 -26 -121 -28 -156 -5 -60 -7 -65 -54 -111 -27 -26
-85 -72 -129 -101 -43 -29 -106 -74 -139 -100 -53 -41 -126 -85 -285 -172 -88
-49 -421 -188 -448 -188 -7 0 -20 -4 -30 -9 -24 -13 -103 -39 -127 -43 -28 -4
-83 33 -125 83 -19 23 -41 47 -48 53 -8 6 -24 21 -37 34 -12 12 -27 22 -33 22
-28 0 -139 170 -126 191 3 6 -4 21 -17 35 -21 22 -31 80 -28 174 0 8 0 29 0
45 0 47 38 257 51 283 20 39 17 538 -4 712 -10 80 -25 203 -33 274 l-15 128
-43 48 c-112 125 -244 353 -311 536 -55 152 -110 374 -132 527 -5 38 -12 51
-33 61 -14 8 -33 22 -42 32 -20 23 -52 131 -45 150 3 7 -2 30 -10 50 -12 29
-13 46 -5 78 38 152 41 206 14 206 -10 0 -24 -4 -31 -9 -10 -6 -8 -10 8 -14
19 -5 21 -10 15 -49 -4 -24 -8 -60 -9 -81 -2 -21 -8 -43 -14 -49 -17 -17 -34
28 -27 73 7 42 0 49 -21 22 -12 -16 -13 -15 -14 10 0 15 -4 27 -9 27 -17 0
-24 97 -10 135 11 29 11 38 0 44 -13 8 -10 48 9 121 5 19 12 48 15 64 3 15 9
25 12 22 9 -9 4 -92 -7 -121 -6 -15 -6 -27 0 -30 6 -4 10 0 11 7 1 20 27 -54
28 -79 1 -13 5 -23 10 -23 5 0 11 -10 14 -22 5 -17 9 -19 20 -10 8 7 17 9 21
5 3 -4 4 88 1 203 -7 235 -6 334 2 347 3 5 7 29 9 52 1 24 14 67 28 97 14 30
26 62 26 71 0 28 21 107 52 195 17 46 27 89 25 97 -3 7 7 30 23 52 16 21 30
45 30 53 0 9 9 34 20 55 11 22 27 60 34 85 7 25 22 61 33 80 11 19 28 58 37
85 10 28 23 64 29 80 l12 30 6 -30 6 -30 17 40 c10 22 26 58 37 81 10 22 19
50 19 61 0 34 149 309 150 277 1 -18 29 42 30 62 0 12 7 27 15 34 8 7 15 18
15 25 0 6 9 20 20 30 11 10 17 21 15 25 -3 4 4 18 14 31 10 13 53 92 96 174
85 163 132 238 144 231 5 -3 17 12 27 34 17 36 34 52 34 33 0 -10 -96 -201
-109 -217 -4 -6 -21 -42 -36 -81 -15 -38 -40 -97 -55 -130 -43 -92 -60 -136
-60 -152 0 -9 -11 -41 -24 -72 -39 -90 -113 -281 -134 -346 -11 -33 -29 -78
-40 -100 -26 -51 -38 -115 -23 -115 6 0 11 -9 11 -20 0 -11 4 -20 9 -20 13 0
51 49 51 65 0 7 7 18 16 26 14 11 15 9 9 -27 l-7 -39 22 35 c12 19 26 37 31
38 5 2 9 10 9 18 0 8 5 14 10 14 6 0 10 -4 10 -10 0 -5 7 -10 15 -10 8 0 15
-7 15 -15 0 -8 3 -15 7 -15 12 0 53 43 53 56 0 20 19 27 36 13 11 -9 18 -9 26
-1 7 7 20 12 30 12 10 0 18 7 18 15 0 8 -4 15 -10 15 -24 0 -7 27 31 49 47 26
38 43 -18 34 l-33 -6 0 47 c0 25 5 46 10 46 6 0 10 7 10 15 0 28 -18 15 -25
-17 -4 -18 -13 -43 -21 -56 -12 -18 -18 -20 -34 -12 -14 7 -20 7 -20 0 0 -5
-8 -10 -18 -10 -10 0 -24 -6 -31 -12 -10 -11 -15 -10 -25 5 -18 24 -23 22 -31
-14 -4 -17 -13 -33 -21 -36 -8 -3 -21 -17 -29 -32 l-14 -26 -1 24 c0 14 4 38
10 55 5 17 21 69 35 116 14 47 31 94 37 104 20 37 78 187 78 203 0 25 61 143
74 143 7 0 17 -5 22 -10 8 -8 15 -6 24 5 11 14 11 18 1 25 -11 6 -11 14 3 40
19 39 21 63 4 58 -7 -3 -16 -19 -19 -37 -4 -18 -14 -40 -23 -49 -20 -20 -21
-4 -2 23 7 11 17 34 20 52 8 33 36 67 36 43 0 -10 3 -10 15 0 8 7 15 23 15 36
0 12 4 25 9 28 15 9 0 -75 -22 -127 -11 -26 -17 -50 -13 -54 3 -3 6 0 6 8 0 8
9 25 19 38 10 14 17 31 14 38 -3 7 0 13 6 13 6 0 13 -11 17 -25 5 -21 8 -22
20 -10 8 7 14 17 14 22 0 4 21 27 45 51 25 24 48 54 51 68 8 30 20 23 40 -24
l15 -37 29 53 c32 58 41 82 37 95 -1 5 6 13 16 18 9 6 17 20 17 33 0 12 15 40
33 62 18 21 43 53 55 71 16 22 28 30 39 26 13 -5 15 -2 11 15 -4 15 -2 22 8
22 20 0 18 -50 -3 -66 -13 -9 -15 -16 -7 -23 7 -8 17 2 33 34 28 56 41 64 42
28 1 -28 1 -28 16 7 23 54 36 66 44 43 6 -14 8 -13 8 10 1 18 6 27 17 27 10 0
14 -6 11 -17 -3 -10 -13 -54 -22 -98 -10 -44 -24 -92 -31 -108 -8 -15 -14 -42
-13 -60 1 -17 -4 -52 -10 -77 -7 -25 -16 -63 -21 -85 -5 -22 -17 -74 -28 -115
-10 -41 -22 -91 -25 -110 -6 -34 -6 -35 8 -10 8 14 14 36 15 51 0 14 4 29 8
35 4 5 16 36 26 69 10 33 24 73 30 90 l13 29 7 -52 c5 -42 3 -59 -14 -93 -12
-22 -19 -48 -16 -56 3 -8 0 -26 -8 -41 -14 -27 -20 -76 -16 -137 1 -31 20 29
55 175 9 36 22 88 30 115 8 28 21 79 29 115 39 176 59 256 66 265 4 6 10 21
13 35 12 55 76 195 82 179 3 -8 -1 -29 -10 -45 -16 -31 -20 -80 -7 -88 5 -3
15 18 23 46 l13 51 13 -29 c7 -16 12 -23 13 -16 0 6 6 12 14 12 8 0 18 9 21
20 8 25 25 26 26 3 0 -14 2 -15 6 -3 3 8 10 20 17 25 6 6 19 27 28 48 23 48
32 47 24 -2z m271 -23 c-3 -8 -6 -5 -6 6 -1 11 2 17 5 13 3 -3 4 -12 1 -19z
m0 -80 c-3 -8 -6 -5 -6 6 -1 11 2 17 5 13 3 -3 4 -12 1 -19z m444 -39 c-8 -21
-10 -22 -16 -6 -10 23 2 54 16 40 6 -6 6 -18 0 -34z m-1044 -126 c-3 -10 -5
-4 -5 12 0 17 2 24 5 18 2 -7 2 -21 0 -30z m-433 -65 c-9 -29 -47 -88 -57 -88
-10 0 46 109 56 109 5 1 5 -9 1 -21z m401 -67 c-3 -12 -11 -21 -16 -21 -6 0
-8 3 -6 8 2 4 7 16 11 26 9 25 20 13 11 -13z m-972 -48 c-3 -27 -10 -52 -15
-58 -10 -10 -2 81 9 98 9 15 10 6 6 -40z m581 -30 c-9 -63 -16 -74 -26 -38 -5
21 -3 34 7 45 8 9 15 22 15 28 0 7 3 12 6 12 3 0 2 -21 -2 -47z m374 -23 c-7
-10 -14 -18 -15 -16 -6 6 9 36 18 36 5 0 4 -9 -3 -20z m-482 -39 c-15 -15 -16
-13 -4 19 9 26 13 30 16 16 2 -10 -3 -26 -12 -35z m-76 -89 c0 -15 -2 -15 -10
-2 -13 20 -13 33 0 25 6 -3 10 -14 10 -23z m-510 14 c0 -3 -4 -8 -10 -11 -5
-3 -10 -1 -10 4 0 6 5 11 10 11 6 0 10 -2 10 -4z m98 -73 c-28 -65 -159 -283
-170 -283 -4 0 -8 -7 -8 -16 0 -8 -4 -12 -10 -9 -5 3 -10 1 -10 -4 0 -6 5 -11
10 -11 22 0 8 -27 -36 -69 l-46 -45 7 35 c4 18 12 45 18 59 5 14 11 30 13 37
1 7 12 26 24 43 12 16 23 42 24 56 2 15 11 31 21 36 14 8 15 12 4 19 -11 7 -9
10 8 15 12 3 25 15 28 25 4 10 11 19 16 19 5 0 9 7 9 15 0 15 33 38 42 29 3
-2 11 3 19 13 12 15 12 16 -3 10 -10 -3 -18 -2 -18 2 0 8 66 71 75 71 2 0 -6
-21 -17 -47z m-262 -491 c-18 -16 -18 -16 -6 6 6 13 14 21 18 18 3 -4 -2 -14
-12 -24z m-24 -44 c-7 -7 -12 -8 -12 -2 0 14 12 26 19 19 2 -3 -1 -11 -7 -17z
m2988 2 c0 -5 -5 -10 -11 -10 -5 0 -7 5 -4 10 3 6 8 10 11 10 2 0 4 -4 4 -10z
m-2730 -276 c0 -8 -5 -12 -10 -9 -6 4 -8 11 -5 16 9 14 15 11 15 -7z m3837
-66 c-3 -8 -6 -5 -6 6 -1 11 2 17 5 13 3 -3 4 -12 1 -19z m-4946 -175 c-8 -15
-10 -15 -11 -2 0 17 10 32 18 25 2 -3 -1 -13 -7 -23z m5013 -39 c9 -20 14 -39
11 -43 -10 -9 -45 38 -45 60 0 30 15 22 34 -17z m1346 -161 c0 -5 -5 -15 -10
-23 -7 -12 -4 -16 18 -20 20 -4 28 -12 30 -33 4 -31 -2 -32 -43 -6 -16 10 -39
23 -50 27 -18 9 -18 10 9 36 29 26 46 33 46 19z m-6063 -179 c-8 -16 -24 -38
-36 -48 -25 -23 -51 -72 -51 -97 0 -10 -3 -20 -7 -22 -5 -3 -8 18 -8 47 0 67
30 131 70 150 38 19 51 6 32 -30z m6239 31 c-11 -8 -22 -12 -25 -9 -6 6 19 24
34 24 6 -1 1 -7 -9 -15z m-6156 -50 c7 -22 21 -51 31 -64 11 -13 19 -31 19
-40 0 -9 7 -27 16 -40 14 -19 16 -43 12 -142 -3 -65 -1 -119 3 -119 5 0 9 -4
9 -10 0 -5 -7 -7 -15 -4 -16 6 -19 -3 -15 -45 1 -13 -6 -56 -16 -95 -9 -39
-21 -89 -27 -111 l-9 -40 -15 40 c-26 68 -74 188 -88 220 -7 17 -21 50 -30 75
-9 25 -22 55 -28 67 -5 13 -11 42 -11 65 -1 36 2 43 18 43 16 0 19 8 21 51 1
34 9 62 23 82 12 16 22 36 22 43 0 19 51 82 60 72 4 -4 13 -26 20 -48z m6366
14 c11 -18 -32 -51 -73 -56 -21 -2 -60 -4 -88 -3 -47 0 -52 -2 -79 -40 -45
-61 -50 -53 -31 45 6 28 66 55 89 41 13 -9 19 -7 27 7 8 14 24 17 79 17 39 0
72 -5 76 -11z m-1736 -30 c0 -5 -4 -9 -10 -9 -5 0 -10 7 -10 16 0 8 5 12 10 9
6 -3 10 -10 10 -16z m0 -59 c0 -11 -4 -20 -9 -20 -11 0 -22 26 -14 34 12 12
23 5 23 -14z m30 -129 c0 -6 -4 -13 -10 -16 -5 -3 -10 1 -10 9 0 9 5 16 10 16
6 0 10 -4 10 -9z m-3 -183 c-3 -7 -5 -2 -5 12 0 14 2 19 5 13 2 -7 2 -19 0
-25z m1693 -127 c0 -6 -4 -13 -10 -16 -5 -3 -10 1 -10 9 0 9 5 16 10 16 6 0
10 -4 10 -9z m-186 -41 l50 -17 -30 -11 c-16 -6 -48 -23 -72 -37 -23 -14 -44
-25 -46 -25 -4 0 4 90 10 109 3 8 10 10 22 6 9 -5 39 -15 66 -25z m256 -40
c20 -5 44 -16 55 -24 18 -14 15 -15 -45 -16 -75 0 -88 -6 -109 -52 -26 -53
-46 -48 -46 11 0 39 -5 54 -20 65 -16 12 -17 16 -5 20 44 16 100 14 170 -4z
m-1703 -62 c-3 -8 -6 -5 -6 6 -1 11 2 17 5 13 3 -3 4 -12 1 -19z m1273 -14 c0
-8 -5 -12 -10 -9 -6 4 -8 11 -5 16 9 14 15 11 15 -7z m122 -29 c-4 -36 -24
-61 -41 -50 -12 7 23 85 37 85 4 0 6 -16 4 -35z m-6722 -33 c-16 -61 -35 -66
-27 -8 8 57 15 72 29 58 6 -6 5 -24 -2 -50z m30 -196 c0 -16 -18 -31 -27 -22
-8 8 5 36 17 36 5 0 10 -6 10 -14z m0 -88 c0 -13 -6 -43 -14 -67 -11 -39 -14
-41 -18 -20 -8 43 3 109 18 109 8 0 14 -10 14 -22z m7250 -202 c0 -3 -4 -8
-10 -11 -5 -3 -10 -1 -10 4 0 6 5 11 10 11 6 0 10 -2 10 -4z m-1762 -35 c11
-6 9 -9 -7 -14 -12 -3 -22 1 -25 9 -6 16 12 18 32 5z m1692 -101 c0 -5 -4 -10
-10 -10 -5 0 -10 5 -10 10 0 6 5 10 10 10 6 0 10 -4 10 -10z m-139 -60 c10 0
19 -6 19 -14 0 -22 -64 -13 -69 9 -2 13 1 16 14 11 9 -3 25 -6 36 -6z m-74
-22 c-3 -8 -6 -5 -6 6 -1 11 2 17 5 13 3 -3 4 -12 1 -19z m200 -20 c-3 -8 -6
-5 -6 6 -1 11 2 17 5 13 3 -3 4 -12 1 -19z m-1648 -111 c-1 -18 1 -39 5 -48 5
-12 1 -18 -18 -21 -27 -5 -36 11 -36 69 0 22 5 33 18 36 26 6 33 -2 31 -36z
m-5769 13 c0 -15 -22 -24 -60 -23 -28 0 -30 0 -7 -4 22 -3 27 -8 22 -21 -18
-44 -18 -52 4 -52 18 0 22 -5 19 -27 -3 -25 -9 -29 -63 -41 -54 -11 -87 -11
-150 0 -14 2 -19 -2 -17 -13 3 -21 -52 -33 -103 -23 -22 4 -41 2 -50 -6 -8 -7
-38 -14 -66 -16 -28 -2 -66 -13 -84 -24 -18 -11 -42 -20 -53 -20 -11 0 -23 -4
-26 -9 -3 -5 -20 -11 -38 -14 -18 -3 -44 -8 -57 -13 -19 -6 -22 -4 -16 7 7 12
6 12 -7 1 -13 -10 -20 -9 -39 7 -33 27 -17 37 32 21 37 -12 42 -12 50 3 8 13
19 15 58 10 43 -5 49 -3 54 16 4 15 13 21 35 21 21 0 35 8 46 25 17 26 45 32
77 15 14 -8 19 -7 19 3 0 8 9 22 20 32 11 10 20 27 20 37 0 10 8 22 18 25 9 4
23 13 30 20 7 7 34 13 60 13 46 0 58 3 167 37 71 22 105 26 105 13z m107 -23
c-8 -12 -22 -24 -32 -25 -14 -3 -14 1 6 27 25 34 48 32 26 -2z m-37 -63 c0 -8
-5 -12 -10 -9 -6 4 -8 11 -5 16 9 14 15 11 15 -7z m5785 -41 c-2 -10 -4 -20
-4 -22 -1 -2 -8 2 -16 9 -13 11 -13 15 -3 21 20 13 27 11 23 -8z m1695 -3 c0
-5 -5 -10 -11 -10 -5 0 -7 5 -4 10 3 6 8 10 11 10 2 0 4 -4 4 -10z m-1725 -47
c4 9 13 17 21 17 8 0 11 -6 8 -15 -7 -18 7 -20 24 -3 14 14 16 0 3 -21 -15
-23 -122 -9 -127 17 -1 7 0 8 3 2 10 -21 33 -10 34 18 l1 27 13 -30 c11 -25
14 -27 20 -12z m1725 7 c0 -5 -4 -10 -9 -10 -6 0 -13 5 -16 10 -3 6 1 10 9 10
9 0 16 -4 16 -10z m-8170 -66 c0 -8 -5 -12 -10 -9 -6 4 -8 11 -5 16 9 14 15
11 15 -7z m8100 -23 c0 -8 -33 -21 -56 -21 -7 0 -14 7 -18 15 -4 12 3 15 34
15 22 0 40 -4 40 -9z m-8603 -113 c-3 -8 -6 -5 -6 6 -1 11 2 17 5 13 3 -3 4
-12 1 -19z m7220 -44 c-3 -3 -12 -4 -19 -1 -8 3 -5 6 6 6 11 1 17 -2 13 -5z
m93 -4 c11 -7 4 -10 -25 -10 -29 0 -36 3 -25 10 8 5 20 10 25 10 6 0 17 -5 25
-10z m140 -10 c0 -6 -11 -8 -27 -4 -40 10 -41 14 -5 14 18 0 32 -5 32 -10z
m40 0 c0 -5 -2 -10 -4 -10 -3 0 -8 5 -11 10 -3 6 -1 10 4 10 6 0 11 -4 11 -10z
m-5780 -30 c0 -11 -4 -20 -10 -20 -5 0 -10 9 -10 20 0 11 5 20 10 20 6 0 10
-9 10 -20z m6660 10 c0 -5 -4 -10 -10 -10 -5 0 -10 5 -10 10 0 6 5 10 10 10 6
0 10 -4 10 -10z m179 -36 c2 -2 -10 -4 -27 -4 -18 0 -32 5 -32 10 0 9 47 4 59
-6z m21 -84 c0 -5 -6 -10 -14 -10 -8 0 -16 -6 -19 -12 -2 -7 -8 -10 -12 -5 -5
4 0 14 11 22 23 17 34 19 34 5z m45 -20 c3 -5 2 -10 -4 -10 -5 0 -13 5 -16 10
-3 6 -2 10 4 10 5 0 13 -4 16 -10z m-510 -130 c-3 -5 2 -10 12 -11 10 -1 3 -5
-16 -9 -46 -11 -68 -3 -44 16 21 16 57 19 48 4z m75 -5 c0 -19 -11 -19 -36 0
-18 14 -18 14 9 15 17 0 27 -5 27 -15z m-6409 -22 c-8 -15 -10 -15 -11 -2 0
17 10 32 18 25 2 -3 -1 -13 -7 -23z m5753 -64 c39 -1 40 -1 12 -9 -16 -5 -33
-7 -36 -5 -4 3 -29 6 -54 7 -30 1 -42 4 -34 10 7 5 26 6 42 3 16 -3 47 -5 70
-6z m-7174 -54 c0 -9 -9 -15 -25 -15 -29 0 -34 16 -7 23 30 8 32 7 32 -8z
m100 -25 c0 -14 -9 -21 -35 -26 -43 -8 -45 -6 -34 24 11 30 69 32 69 2z m1305
-30 c-5 -8 -11 -8 -17 -2 -6 6 -7 16 -3 22 5 8 11 8 17 2 6 -6 7 -16 3 -22z
m6761 -1 c5 -8 -1 -10 -19 -7 -15 3 -28 0 -30 -5 -2 -6 -11 -7 -22 -3 -16 6
-17 9 -5 16 21 13 67 12 76 -1z m-115 -35 c7 -8 21 -13 31 -11 10 3 25 -1 33
-10 12 -11 22 -12 43 -5 25 10 25 10 5 11 -31 1 -29 21 1 21 24 0 41 -14 41
-35 0 -5 11 -12 25 -16 22 -5 23 -7 7 -14 -9 -4 -32 -4 -50 0 -17 3 -62 6 -98
5 -48 -1 -69 3 -78 14 -11 13 -11 16 0 16 9 0 7 5 -5 11 -15 9 -16 13 -5 20
21 13 35 11 50 -7z m-6665 -41 c-11 -11 -17 4 -9 23 7 18 8 18 11 1 2 -10 1
-21 -2 -24z m6579 16 c-10 -15 -25 -10 -19 6 4 8 10 12 15 9 5 -3 7 -10 4 -15z
m-295 -357 c0 -5 -14 -19 -31 -31 l-31 -23 31 -29 c38 -34 40 -53 6 -47 -32 7
-33 -15 -1 -30 23 -10 42 -66 34 -103 -2 -8 3 -13 10 -11 17 3 15 -15 -3 -22
-8 -3 -15 -14 -15 -24 0 -15 -79 -80 -84 -70 -7 12 -26 59 -36 86 -10 27 -10
40 3 75 9 23 17 53 19 67 2 14 10 25 18 25 8 0 16 8 18 19 3 11 0 16 -7 12 -7
-5 -9 -1 -5 8 4 9 1 16 -6 16 -17 0 -2 61 19 77 18 14 61 17 61 5z m-6750
-114 c0 -2 -7 -21 -15 -43 -8 -23 -14 -31 -14 -20 -1 30 10 65 20 65 5 0 9 -1
9 -2z m80 -43 c0 -12 -40 -48 -47 -42 -3 4 2 16 13 26 19 19 34 26 34 16z
m-130 -40 c0 -8 -7 -15 -15 -15 -16 0 -20 12 -8 23 11 12 23 8 23 -8z m-47
-45 c-9 -11 -19 -17 -21 -15 -6 6 18 35 29 35 5 0 1 -9 -8 -20z m298 -45 c-1
-15 -24 -12 -29 3 -3 9 2 13 12 10 10 -1 17 -7 17 -13z m-781 -39 c0 -11 -19
-15 -25 -6 -3 5 1 10 9 10 9 0 16 -2 16 -4z m1050 -11 c0 -8 -4 -15 -10 -15
-5 0 -7 7 -4 15 4 8 8 15 10 15 2 0 4 -7 4 -15z m-500 -10 c0 -8 -7 -15 -15
-15 -8 0 -15 7 -15 15 0 8 7 15 15 15 8 0 15 -7 15 -15z m6742 -113 c-12 -2
-33 5 -48 14 -24 16 -25 19 -8 24 12 5 30 -1 47 -14 27 -19 27 -21 9 -24z
m-3235 6 c-3 -8 -6 -5 -6 6 -1 11 2 17 5 13 3 -3 4 -12 1 -19z m3115 1 c2 -5
10 -11 18 -13 8 -1 27 -9 43 -16 25 -12 35 -39 27 -75 -1 -5 -3 -19 -4 -30 -1
-11 -6 -28 -10 -37 -6 -13 5 -32 40 -73 26 -30 51 -55 56 -55 4 0 14 -12 22
-27 8 -16 39 -55 70 -88 31 -33 62 -73 70 -90 8 -16 28 -43 45 -59 17 -17 31
-36 31 -43 0 -7 5 -13 10 -13 6 0 10 -7 10 -15 0 -9 7 -18 15 -21 8 -4 15 -13
15 -22 0 -12 -5 -11 -23 6 -13 12 -31 22 -40 22 -9 0 -21 8 -26 18 -5 10 -22
24 -38 32 -53 28 -143 92 -153 110 -5 9 -23 23 -40 30 -16 7 -30 16 -30 21 0
5 -6 9 -14 9 -7 0 -19 7 -26 15 -7 8 -21 15 -30 15 -10 0 -20 5 -22 12 -2 6
-10 8 -17 4 -9 -6 -5 -14 14 -32 14 -13 23 -29 19 -35 -5 -8 -8 -8 -14 0 -5 8
-14 9 -33 2 -18 -7 -36 -7 -58 1 -26 9 -34 8 -43 -3 -23 -31 -110 -19 -300 42
-16 5 -42 9 -57 9 -15 0 -40 5 -56 12 -15 6 -32 10 -36 9 -4 0 -18 4 -30 11
-12 6 -33 11 -47 10 -43 -3 -115 23 -115 42 0 10 -8 22 -18 27 -21 12 -23 33
-2 25 11 -4 15 2 15 20 0 21 -2 23 -13 12 -8 -7 -31 -22 -53 -33 -21 -11 -44
-26 -49 -33 -8 -10 -21 -11 -59 -2 -82 18 -83 21 -23 79 79 77 139 109 149 80
2 -5 18 -11 36 -11 18 -1 35 -5 38 -10 9 -14 24 -9 24 10 0 15 6 17 35 14 21
-3 35 0 35 7 0 12 -6 14 -72 15 -66 2 -78 18 -31 42 21 10 45 24 54 31 26 21
107 36 222 40 91 4 119 1 170 -16 33 -12 84 -21 113 -21 71 0 117 -22 186 -87
32 -31 58 -54 59 -52 0 2 2 13 3 24 2 11 6 35 10 53 6 25 4 33 -9 38 -9 4 -20
3 -24 -2 -3 -5 -12 -9 -18 -8 -7 1 -18 2 -24 3 -6 0 -8 10 -4 21 3 10 1 28 -5
40 -6 12 -7 20 -1 20 5 0 11 -5 13 -11z m-1159 -76 c4 -3 2 -12 -4 -20 -23
-27 -149 -10 -149 21 0 8 145 8 153 -1z m-1553 -67 c0 -8 -4 -18 -10 -21 -5
-3 -10 3 -10 14 0 12 5 21 10 21 6 0 10 -6 10 -14z m430 4 c0 -5 -4 -10 -10
-10 -5 0 -10 5 -10 10 0 6 5 10 10 10 6 0 10 -4 10 -10z m-1116 -67 c-4 -20
-8 -53 -9 -72 -3 -57 -4 -58 -25 -64 -14 -4 -20 -14 -20 -32 l0 -27 20 23 c25
31 25 18 0 -31 -13 -25 -18 -49 -14 -64 6 -24 -20 -75 -38 -76 -14 0 -8 21 12
48 15 19 17 27 9 33 -19 12 -12 115 12 178 49 128 66 156 53 84z m46 17 c0
-11 -4 -20 -9 -20 -5 0 -7 9 -4 20 3 11 7 20 9 20 2 0 4 -9 4 -20z m758 -12
c-3 -7 -13 -15 -24 -17 -16 -3 -17 -1 -5 13 16 19 34 21 29 4z m567 -13 c16
-13 27 -26 24 -29 -7 -8 -69 32 -69 44 0 16 12 11 45 -15z m-100 -65 c8 0 16
-12 18 -27 4 -26 4 -26 6 5 1 24 6 32 20 32 10 0 21 -8 25 -17 3 -10 9 -24 12
-30 3 -8 -1 -13 -10 -13 -13 0 -12 -5 6 -25 12 -14 27 -25 34 -25 6 0 17 -7
24 -15 10 -12 10 -15 -3 -15 -8 0 -20 7 -27 15 -7 8 -20 15 -30 15 -9 0 -29 9
-43 20 -14 11 -29 20 -34 20 -14 0 -83 50 -83 60 0 6 9 10 20 10 11 0 20 5 20
11 0 6 7 3 16 -5 8 -9 22 -16 29 -16z m195 -5 c7 -8 18 -15 25 -15 7 0 16 -7
19 -16 4 -12 2 -15 -9 -10 -13 4 -14 2 -5 -15 6 -11 15 -17 19 -15 4 3 19 -6
31 -19 13 -14 33 -25 44 -25 20 0 66 -36 66 -52 0 -16 35 -48 52 -48 26 0 22
-20 -4 -21 -27 -2 -25 -2 -107 22 -73 21 -97 39 -106 80 -4 15 -17 43 -29 61
-12 19 -21 39 -19 45 2 6 -1 14 -6 18 -6 3 -11 10 -11 16 0 14 26 11 40 -6z
m-1150 -15 c0 -5 -5 -10 -11 -10 -5 0 -7 5 -4 10 3 6 8 10 11 10 2 0 4 -4 4
-10z m0 -85 c0 -19 -4 -35 -10 -35 -5 0 -10 16 -10 35 0 19 5 35 10 35 6 0 10
-16 10 -35z m3155 -75 c3 -5 2 -10 -4 -10 -5 0 -13 5 -16 10 -3 6 -2 10 4 10
5 0 13 -4 16 -10z m79 -55 c3 -8 0 -15 -7 -15 -7 0 3 -10 22 -23 19 -12 46
-30 60 -40 l26 -19 -25 8 c-14 3 -37 13 -52 20 -15 8 -36 14 -47 14 -11 0 -22
4 -26 9 -3 5 -19 12 -35 16 -34 8 -31 25 5 25 13 0 27 5 30 10 9 15 42 12 49
-5z m-1631 -52 c-13 -2 -33 -2 -45 0 -13 2 -3 4 22 4 25 0 35 -2 23 -4z m57
-13 c0 -5 -4 -10 -9 -10 -6 0 -13 5 -16 10 -3 6 1 10 9 10 9 0 16 -4 16 -10z
m516 -17 c-10 -11 -36 -12 -36 -2 0 5 10 9 22 9 12 0 18 -3 14 -7z m132 -30
c-10 -2 -26 -2 -35 0 -10 3 -2 5 17 5 19 0 27 -2 18 -5z m735 -130 c-13 -2
-35 -2 -50 0 -16 2 -5 4 22 4 28 0 40 -2 28 -4z m-7276 -2242 c-4 -17 1 -20
42 -23 77 -5 60 -28 -49 -65 -52 -17 -105 -32 -116 -32 -15 -1 -23 -9 -27 -28
-3 -16 -4 -29 -2 -31 1 -2 36 -4 76 -4 57 -1 85 4 122 21 47 22 47 23 27 39
-32 27 -11 47 50 46 71 -1 92 -37 50 -82 -25 -26 -14 -28 56 -11 39 10 48 9
61 -4 15 -15 14 -17 -8 -26 -13 -5 -78 -21 -144 -36 -169 -37 -165 -36 -136
-47 24 -9 63 -5 264 27 93 14 117 12 117 -11 0 -9 11 -14 29 -14 34 0 91 -43
91 -69 0 -28 -29 -46 -110 -65 -96 -24 -180 -59 -286 -121 -38 -23 -64 -14
-64 20 0 33 24 56 93 85 44 19 56 29 55 44 -2 13 7 26 24 35 25 14 30 14 56
-1 23 -14 36 -15 68 -7 69 18 69 17 40 44 l-27 25 -82 -15 c-45 -9 -122 -25
-172 -37 -173 -40 -277 1 -200 78 14 14 25 26 25 28 0 2 -29 6 -64 9 -79 7
-106 22 -106 59 0 26 -3 28 -40 28 -28 0 -43 5 -47 16 -8 22 14 34 67 34 39 1
43 2 25 12 -11 7 -48 12 -83 11 -49 -1 -64 2 -69 14 -9 23 16 33 87 33 42 0
80 -7 107 -19 41 -19 42 -19 60 1 26 29 83 57 117 58 23 0 27 -3 23 -19z
m-708 -72 c6 -20 10 -56 8 -80 -6 -61 -37 -181 -52 -199 -7 -8 -24 -41 -39
-72 -15 -32 -30 -58 -35 -58 -20 0 -31 -54 -25 -121 6 -60 3 -81 -21 -154 -22
-64 -26 -88 -17 -97 9 -9 13 -7 17 8 16 51 36 85 46 78 14 -8 7 -59 -22 -157
-17 -58 -28 -81 -43 -87 -17 -6 -25 -28 -44 -116 -25 -116 -34 -142 -47 -134
-14 8 -5 104 11 113 18 10 18 38 0 31 -12 -5 -12 1 0 38 35 110 42 147 40 198
-2 30 3 78 11 105 7 28 13 64 13 82 0 17 4 34 9 37 4 3 11 27 15 53 3 26 31
146 60 267 30 122 60 247 67 278 14 62 24 59 48 -13z m-155 -191 c-7 -58 -27
-128 -35 -128 -4 0 -9 -9 -12 -20 -9 -34 -27 -22 -27 19 0 25 5 41 15 45 8 3
15 16 15 29 0 32 27 97 40 97 6 0 8 -17 4 -42z m-72 -230 c-9 -9 -12 -4 -11
23 0 32 1 33 11 11 8 -17 8 -26 0 -34z m-65 10 c-3 -7 -5 -2 -5 12 0 14 2 19
5 13 2 -7 2 -19 0 -25z m99 -15 c-10 -10 -19 5 -10 18 6 11 8 11 12 0 2 -7 1
-15 -2 -18z m869 -278 c0 -10 -6 -20 -12 -22 -8 -3 -13 5 -13 22 0 17 5 25 13
23 6 -3 12 -13 12 -23z m-57 -17 c-2 -13 -7 -23 -13 -23 -5 0 -11 10 -13 23
-2 15 2 22 13 22 11 0 15 -7 13 -22z m-904 -25 c-8 -33 -12 -39 -20 -30 -9 9
5 57 16 57 6 0 8 -11 4 -27z m23 -25 c-3 -8 -6 -5 -6 6 -1 11 2 17 5 13 3 -3
4 -12 1 -19z m901 -41 c2 -10 -3 -17 -11 -17 -16 0 -30 24 -19 34 10 10 27 1
30 -17z m76 -62 c3 -9 1 -38 -5 -65 -7 -34 -7 -60 0 -87 18 -62 14 -72 -30
-90 -44 -17 -90 -72 -109 -129 -9 -26 -17 -34 -35 -34 -34 0 -40 30 -20 111
13 51 15 80 8 107 -13 53 -7 66 37 91 22 12 56 42 76 66 37 46 67 57 78 30z
m-686 -52 c3 -26 -5 -41 -39 -78 -24 -26 -56 -53 -73 -62 -27 -14 -31 -14 -43
3 -17 23 -16 29 3 70 24 51 90 106 122 102 22 -2 28 -9 30 -35z"/>
<path d="M5641 9768 c0 -24 4 -52 8 -63 14 -35 20 18 12 98 -1 4 -5 7 -11 7
-5 0 -10 -19 -9 -42z"/>
<path d="M5920 9736 c0 -9 5 -16 10 -16 6 0 10 4 10 9 0 6 -4 13 -10 16 -5 3
-10 -1 -10 -9z"/>
<path d="M5924 9676 c-10 -27 2 -43 14 -19 8 14 9 24 2 28 -6 3 -13 -1 -16 -9z"/>
<path d="M4988 9653 c7 -3 16 -2 19 1 4 3 -2 6 -13 5 -11 0 -14 -3 -6 -6z"/>
<path d="M6540 9426 c0 -31 6 -34 13 -6 3 11 1 23 -4 26 -5 3 -9 -6 -9 -20z"/>
<path d="M4775 9409 c-9 -39 1 -50 15 -15 12 34 13 46 1 46 -5 0 -12 -14 -16
-31z"/>
<path d="M6334 9409 c-3 -6 -1 -16 5 -22 8 -8 11 -5 11 11 0 24 -5 28 -16 11z"/>
<path d="M4811 9364 c0 -11 3 -14 6 -6 3 7 2 16 -1 19 -3 4 -6 -2 -5 -13z"/>
<path d="M4608 9259 c-10 -17 -18 -41 -18 -54 0 -13 -4 -26 -8 -29 -4 -2 -9
-22 -10 -43 l-3 -38 31 59 c17 32 29 64 26 71 -2 7 2 21 9 32 18 23 19 33 3
33 -7 0 -21 -14 -30 -31z"/>
<path d="M6342 9215 c0 -16 2 -22 5 -12 2 9 2 23 0 30 -3 6 -5 -1 -5 -18z"/>
<path d="M5070 9108 c0 -19 2 -20 10 -8 13 19 13 30 0 30 -5 0 -10 -10 -10
-22z"/>
<path d="M5790 9082 c0 -33 4 -51 10 -47 13 8 13 65 0 85 -7 11 -10 0 -10 -38z"/>
<path d="M6406 9035 c-9 -34 3 -100 16 -87 5 5 9 28 10 51 1 51 -16 75 -26 36z"/>
<path d="M4472 9029 c-7 -11 -11 -23 -9 -25 7 -7 29 24 25 36 -2 6 -9 1 -16
-11z"/>
<path d="M4551 9043 c0 -6 -4 -20 -7 -30 -5 -14 -4 -15 5 -7 7 7 11 20 8 30
-3 11 -5 14 -6 7z"/>
<path d="M5806 8985 c-13 -20 -15 -29 -6 -35 8 -5 9 -22 5 -52 -4 -29 -3 -48
4 -52 6 -4 11 -17 11 -29 -1 -25 -24 -60 -33 -50 -6 6 -11 -75 -10 -147 3
-121 4 -134 12 -120 6 8 7 18 4 22 -2 5 1 16 9 25 10 13 10 17 1 20 -18 6 -16
75 2 99 14 18 14 17 17 -16 1 -19 4 42 8 135 3 94 3 183 0 199 l-5 29 -19 -28z"/>
<path d="M5037 8953 c-4 -6 -3 -23 2 -39 l8 -29 12 24 c11 19 10 26 -2 38 -8
8 -17 11 -20 6z"/>
<path d="M6410 8810 c0 -14 -5 -18 -17 -13 -14 5 -15 1 -10 -25 4 -18 3 -32
-2 -32 -12 0 -20 -35 -12 -49 11 -18 45 50 48 97 1 23 0 42 -2 42 -3 0 -5 -9
-5 -20z"/>
<path d="M5022 8800 c0 -14 2 -19 5 -12 2 6 2 18 0 25 -3 6 -5 1 -5 -13z"/>
<path d="M4200 8749 c0 -5 5 -7 10 -4 6 3 10 8 10 11 0 2 -4 4 -10 4 -5 0 -10
-5 -10 -11z"/>
<path d="M5002 8700 c0 -14 2 -19 5 -12 2 6 2 18 0 25 -3 6 -5 1 -5 -13z"/>
<path d="M4981 8645 c-6 -16 -16 -41 -21 -55 -26 -66 -29 -159 -4 -119 4 8 9
7 15 -2 6 -10 9 -7 10 11 1 14 3 37 4 52 1 14 9 33 17 42 14 14 17 13 23 -11
4 -19 9 -23 15 -14 13 23 27 4 34 -46 8 -60 19 -78 41 -69 14 5 16 14 11 40
-4 20 -2 37 3 41 12 7 26 -39 18 -60 -4 -8 -2 -17 3 -20 6 -4 11 -18 11 -33 1
-15 5 -2 10 28 8 44 6 62 -7 92 -9 21 -21 35 -25 32 -5 -3 -9 1 -9 10 0 8 -3
21 -6 30 -3 9 -1 16 5 16 6 0 11 -9 11 -20 0 -11 7 -20 15 -20 8 0 15 5 15 10
0 6 -4 10 -10 10 -5 0 -10 11 -10 24 0 33 -39 43 -62 16 -10 -12 -19 -16 -23
-10 -3 5 -17 10 -31 10 -16 0 -28 8 -33 23 -9 21 -9 21 -20 -8z"/>
<path d="M6372 8632 c-6 -14 -12 -41 -12 -60 0 -48 -38 -211 -56 -245 -17 -31
-13 -43 11 -33 8 3 18 19 21 36 10 47 28 37 20 -12 -6 -36 -5 -40 9 -28 8 7
15 19 15 27 0 9 6 13 15 9 11 -4 15 2 15 23 0 29 15 42 58 50 4 1 0 6 -8 12
-12 8 -10 9 8 4 27 -8 29 6 2 23 -11 7 -20 19 -20 27 0 10 -10 15 -29 15 l-29
0 2 86 c0 47 -1 87 -4 89 -3 2 -11 -8 -18 -23z"/>
<path d="M4125 8471 c-6 -10 -18 -34 -29 -52 l-19 -34 22 19 c17 16 51 70 51
83 0 10 -17 0 -25 -16z"/>
<path d="M4926 8433 c-11 -11 -6 -23 9 -23 8 0 15 4 15 9 0 13 -16 22 -24 14z"/>
<path d="M5095 8370 c3 -5 8 -10 11 -10 2 0 4 5 4 10 0 6 -5 10 -11 10 -5 0
-7 -4 -4 -10z"/>
<path d="M6460 8331 c0 -23 5 -41 10 -41 6 0 10 15 10 34 0 19 -4 38 -10 41
-6 4 -10 -10 -10 -34z"/>
<path d="M6510 8334 c0 -25 3 -35 10 -28 15 15 17 56 3 61 -9 3 -13 -7 -13
-33z"/>
<path d="M6265 8204 c-16 -52 -15 -79 4 -58 9 9 25 114 18 114 -2 0 -12 -25
-22 -56z"/>
<path d="M6688 8213 c7 -3 16 -2 19 1 4 3 -2 6 -13 5 -11 0 -14 -3 -6 -6z"/>
<path d="M6748 8213 c7 -3 16 -2 19 1 4 3 -2 6 -13 5 -11 0 -14 -3 -6 -6z"/>
<path d="M6798 8213 c6 -2 18 -2 25 0 6 3 1 5 -13 5 -14 0 -19 -2 -12 -5z"/>
<path d="M6548 8203 c7 -3 16 -2 19 1 4 3 -2 6 -13 5 -11 0 -14 -3 -6 -6z"/>
<path d="M6335 8180 c-3 -5 -1 -10 4 -10 6 0 11 5 11 10 0 6 -2 10 -4 10 -3 0
-8 -4 -11 -10z"/>
<path d="M7067 8123 c-11 -10 3 -22 18 -16 10 3 15 -2 15 -16 0 -12 6 -21 15
-21 8 0 15 -4 15 -10 0 -5 -4 -10 -10 -10 -5 0 -7 -21 -3 -51 4 -31 2 -54 -4
-57 -7 -5 -8 -27 -1 -71 9 -59 4 -131 -8 -131 -3 0 -40 35 -82 79 -76 77 -141
123 -194 136 -38 10 -36 -10 2 -27 17 -7 30 -18 30 -24 0 -7 7 -15 16 -18 10
-4 13 -13 9 -26 -4 -12 -1 -27 5 -35 16 -19 12 -19 -36 4 -25 12 -80 23 -152
30 -99 9 -120 8 -188 -9 -42 -11 -82 -24 -88 -29 -6 -4 -49 -28 -96 -52 -47
-23 -95 -51 -108 -60 l-23 -18 21 -11 c29 -15 96 -9 92 9 -4 20 18 42 63 62
43 20 95 25 95 9 0 -5 6 -7 14 -4 8 3 16 -3 19 -15 4 -16 0 -21 -13 -21 -19 0
-30 -19 -30 -50 0 -22 40 -43 117 -60 29 -7 70 -24 91 -40 27 -19 47 -26 64
-23 14 3 29 0 32 -6 4 -6 24 -11 45 -11 20 0 41 -4 47 -10 5 -5 24 -12 41 -14
32 -3 117 -65 127 -92 3 -9 6 -24 6 -35 0 -11 7 -19 16 -19 8 0 12 5 9 10 -3
6 1 10 9 10 9 0 16 -8 16 -19 0 -11 5 -23 10 -26 6 -3 10 -20 10 -36 0 -16 7
-46 15 -66 20 -47 19 -73 -2 -89 -13 -9 -14 -13 -4 -14 7 0 11 -6 8 -15 -4 -8
-2 -17 3 -20 5 -3 11 3 13 12 5 18 12 -62 9 -104 -1 -33 13 -29 68 18 57 48
179 222 222 316 57 126 82 305 58 411 -17 72 -78 189 -123 235 -66 67 -108 90
-226 123 -29 8 -57 16 -61 19 -4 2 -10 2 -13 -2z m-499 -415 c-3 -60 -25 -73
-41 -25 -13 39 -1 77 24 77 18 0 20 -5 17 -52z"/>
<path d="M7060 8081 c0 -5 5 -13 10 -16 6 -3 10 -2 10 4 0 5 -4 13 -10 16 -5
3 -10 2 -10 -4z"/>
<path d="M4685 8050 c-134 -15 -295 -98 -319 -164 -6 -17 -2 -18 40 -11 63 9
76 15 70 31 -3 8 -1 14 4 14 6 0 10 -4 10 -10 0 -25 53 -5 103 40 l29 25 -7
-25 c-4 -19 -1 -31 14 -44 20 -18 21 -18 32 8 8 16 20 26 34 26 11 0 26 5 33
12 14 14 19 3 25 -64 5 -52 -15 -93 -39 -84 -8 3 -21 3 -30 -1 -12 -4 -9 -9
13 -22 24 -15 42 -16 117 -10 49 5 92 12 96 16 4 4 17 34 30 66 24 62 46 73
82 40 23 -20 36 -9 20 17 -7 11 -12 26 -12 33 0 7 -11 23 -25 35 -14 12 -25
26 -25 31 0 5 -19 12 -42 16 -24 4 -50 11 -58 15 -23 12 -129 17 -195 10z"/>
<path d="M6110 8011 c0 -10 30 -24 37 -17 3 3 2 9 -2 15 -8 13 -35 15 -35 2z"/>
<path d="M5985 7968 c4 -28 2 -38 -8 -38 -21 0 -55 -88 -62 -160 l-6 -66 40
-34 c31 -25 41 -41 41 -64 l1 -31 14 25 c7 15 18 78 23 140 5 63 17 142 27
174 13 48 14 60 3 67 -25 16 -40 11 -28 -10 11 -21 1 -35 -16 -23 -5 4 -15 18
-22 32 -12 23 -12 23 -7 -12z"/>
<path d="M5067 7803 c-12 -11 -8 -23 8 -23 8 0 15 7 15 15 0 16 -12 20 -23 8z"/>
<path d="M5961 7390 c-1 -25 15 -50 31 -50 4 0 8 11 8 25 0 15 -6 25 -14 25
-8 0 -17 6 -19 13 -3 6 -6 1 -6 -13z"/>
<path d="M6010 7295 c0 -11 5 -27 10 -35 8 -12 10 -12 10 5 0 11 -5 27 -10 35
-8 12 -10 12 -10 -5z"/>
<path d="M5920 7150 c0 -49 -5 -101 -12 -115 -9 -19 -9 -28 0 -37 7 -7 12 -33
12 -59 0 -29 6 -53 15 -63 8 -8 15 -22 15 -30 0 -18 15 -21 25 -6 20 32 87
-16 110 -79 25 -65 35 -72 35 -22 0 47 -19 131 -29 131 -4 0 -15 28 -25 63
-10 34 -29 93 -42 131 -13 38 -24 77 -24 86 0 9 -13 29 -30 43 -16 15 -30 32
-30 37 0 6 -4 10 -10 10 -6 0 -10 -37 -10 -90z"/>
<path d="M3570 6990 c0 -5 5 -10 10 -10 6 0 10 5 10 10 0 6 -4 10 -10 10 -5 0
-10 -4 -10 -10z"/>
<path d="M5357 6694 c-11 -11 5 -35 32 -47 28 -14 81 -11 81 4 0 5 1 12 3 15
1 4 -18 13 -43 20 -50 15 -64 17 -73 8z"/>
<path d="M5843 6649 c-31 -9 -78 -59 -84 -89 -3 -14 51 -80 65 -80 3 0 15 21
27 48 11 26 35 62 52 79 17 18 29 35 26 37 -11 11 -57 14 -86 5z"/>
<path d="M5880 5960 c-8 -5 -34 -10 -57 -10 -29 0 -43 -4 -43 -13 0 -18 -32
-47 -52 -47 -9 0 -18 9 -21 20 -4 17 -11 19 -31 14 -25 -6 -31 1 -27 29 2 15
-28 6 -38 -10 -5 -10 -13 -17 -18 -15 -4 2 -9 -1 -11 -7 -2 -7 11 -11 32 -11
20 0 36 -4 36 -10 0 -16 -125 -12 -177 6 -60 21 -160 23 -238 6 -33 -8 -71
-16 -84 -19 -17 -3 -21 -7 -12 -12 7 -4 23 -6 36 -3 13 2 44 -4 69 -13 25 -10
55 -15 66 -12 12 3 46 -3 76 -12 29 -10 65 -16 78 -14 13 3 33 0 44 -6 14 -7
23 -8 27 -1 10 16 82 12 88 -5 4 -8 21 -18 39 -23 21 -5 34 -15 36 -28 2 -10
15 -29 30 -41 19 -16 23 -25 15 -35 -6 -7 -12 -25 -15 -39 -4 -22 1 -27 37
-42 38 -16 48 -16 118 -3 52 10 99 28 143 53 36 21 88 52 117 68 56 33 70 67
31 73 -11 2 -35 16 -52 32 -18 16 -49 32 -70 36 -20 4 -44 13 -53 21 -9 7 -24
11 -33 7 -10 -4 -16 -1 -16 9 0 8 5 17 12 19 6 2 -4 14 -24 26 -41 25 -38 25
-58 12z"/>
<path d="M6325 5110 c-3 -5 -2 -10 4 -10 5 0 13 5 16 10 3 6 2 10 -4 10 -5 0
-13 -4 -16 -10z"/>
<path d="M6361 5084 c-20 -23 -9 -25 18 -3 13 11 17 19 10 19 -8 -1 -20 -8
-28 -16z"/>
<path d="M6310 5071 c0 -10 19 -25 25 -20 1 2 -3 10 -11 17 -8 7 -14 8 -14 3z"/>
<path d="M6250 5055 c0 -8 7 -15 15 -15 8 0 15 7 15 15 0 8 -7 15 -15 15 -8 0
-15 -7 -15 -15z"/>
<path d="M2533 6223 c9 -2 23 -2 30 0 6 3 -1 5 -18 5 -16 0 -22 -2 -12 -5z"/>
<path d="M2378 6212 c-9 -4 -26 -19 -38 -34 l-21 -27 41 -12 c22 -7 43 -10 46
-6 3 3 8 24 11 46 6 43 -1 48 -39 33z"/>
<path d="M2525 6200 c3 -5 10 -10 16 -10 5 0 9 5 9 10 0 6 -7 10 -16 10 -8 0
-12 -4 -9 -10z"/>
<path d="M2566 6161 c-4 -7 -5 -15 -2 -18 9 -9 19 4 14 18 -4 11 -6 11 -12 0z"/>
<path d="M8878 4373 c7 -3 16 -2 19 1 4 3 -2 6 -13 5 -11 0 -14 -3 -6 -6z"/>
<path d="M8928 4353 c7 -3 16 -2 19 1 4 3 -2 6 -13 5 -11 0 -14 -3 -6 -6z"/>
<path d="M8696 4293 c-3 -3 -3 -10 0 -14 7 -12 34 -11 34 0 0 11 -26 22 -34
14z"/>
<path d="M9320 4141 c0 -5 7 -12 16 -15 27 -10 36 -7 20 9 -16 17 -36 20 -36
6z"/>
<path d="M1985 380 c-17 -18 -17 -20 -1 -20 9 0 19 7 23 15 9 25 -2 27 -22 5z"/>
<path d="M7995 10230 c3 -5 16 -11 28 -11 13 -1 8 -4 -12 -8 -54 -10 -51 -31
3 -31 25 0 46 -4 46 -10 0 -5 -11 -10 -24 -10 -26 0 -40 -12 -28 -24 4 -4 8
-12 8 -17 1 -5 2 -15 3 -21 1 -8 6 -6 12 5 15 26 32 10 17 -16 -7 -12 -11 -30
-9 -41 1 -10 -2 -15 -7 -12 -5 3 -12 -3 -15 -13 -2 -11 -15 -21 -28 -23 -38
-5 -28 -23 13 -24 36 -1 68 -17 68 -35 0 -5 -7 -9 -15 -9 -8 0 -15 -4 -15 -10
0 -5 -4 -10 -10 -10 -5 0 -10 9 -10 20 0 17 -7 20 -40 20 -28 0 -40 -4 -40
-14 0 -8 -3 -21 -6 -30 -4 -11 -1 -16 10 -16 10 0 16 8 16 21 0 14 5 19 18 17
10 -2 16 -11 14 -22 -3 -15 1 -18 17 -13 24 6 34 -4 25 -28 -6 -14 -9 -13 -31
7 -20 19 -25 20 -33 8 -16 -25 -12 -60 8 -60 9 0 26 -7 36 -15 19 -14 19 -15
0 -21 -10 -4 -27 -14 -37 -22 -16 -15 -16 -17 4 -38 12 -13 19 -30 16 -38 -4
-9 -2 -18 3 -21 5 -3 8 -31 7 -62 -1 -38 2 -58 11 -60 20 -7 13 -31 -10 -35
-37 -5 -36 -52 1 -87 19 -18 31 -39 31 -55 0 -14 8 -29 18 -35 16 -9 16 -10 0
-16 -10 -4 -18 -14 -18 -22 0 -16 -34 -15 -72 2 -25 10 -36 -22 -15 -43 14
-13 21 -14 43 -3 15 6 29 9 32 6 3 -3 0 -5 -6 -5 -21 0 -13 -42 8 -47 22 -6
26 -18 8 -29 -6 -4 -17 1 -24 10 -10 14 -16 15 -34 6 -11 -6 -30 -8 -40 -5
-16 5 -20 2 -20 -19 0 -20 5 -26 22 -26 12 0 30 -7 40 -17 15 -13 23 -14 43
-5 18 8 25 8 25 1 0 -7 12 -9 33 -5 38 7 63 -15 69 -61 2 -22 -1 -27 -15 -25
-10 2 -24 -1 -31 -7 -14 -12 -126 -3 -126 10 0 5 -7 9 -15 9 -8 0 -15 -4 -15
-8 0 -14 124 -124 162 -143 l38 -19 0 23 c0 18 -10 28 -40 42 -26 12 -40 25
-40 37 0 14 8 18 40 18 28 0 40 -4 40 -14 0 -8 5 -16 11 -18 14 -5 19 -69 7
-84 -10 -13 28 -94 46 -99 6 -1 29 -7 51 -11 30 -7 40 -14 41 -29 2 -60 4 -65
25 -65 12 0 23 -8 26 -19 3 -11 13 -21 24 -24 20 -5 26 -32 9 -42 -15 -9 -12
-22 5 -29 21 -8 54 14 48 31 -3 8 2 13 12 13 10 0 15 -5 12 -14 -5 -14 10 -36
25 -36 4 0 8 8 8 18 0 9 9 23 20 30 11 7 20 19 20 27 0 10 11 15 35 15 24 0
35 5 35 14 0 8 12 29 27 46 20 24 23 34 14 40 -11 6 -11 8 -1 12 7 2 14 17 16
34 7 84 16 165 23 214 8 49 9 43 10 -57 1 -132 -6 -125 133 -121 51 1 98 -1
104 -5 6 -3 28 -1 49 4 32 9 41 8 50 -5 10 -14 19 -14 70 -3 47 9 53 13 34 18
-16 5 -6 7 31 8 l56 1 -4 -35 c-3 -28 -1 -35 12 -35 10 0 14 -4 11 -10 -3 -6
5 -10 19 -10 13 0 27 6 30 13 3 8 11 4 26 -12 15 -18 32 -24 63 -25 23 -1 48
3 55 8 7 5 18 3 28 -5 13 -10 17 -10 24 0 10 17 30 5 30 -17 1 -16 1 -16 11 1
16 28 119 20 119 -10 0 -8 5 -11 10 -8 6 4 8 15 5 26 -4 11 -2 19 4 19 6 0 14
0 18 0 4 0 8 -7 9 -16 4 -26 13 -29 28 -8 12 15 17 17 27 7 7 -7 22 -13 33
-13 11 0 28 -7 38 -16 14 -14 20 -14 33 -4 9 7 18 10 22 7 3 -3 17 0 32 7 22
12 30 12 51 0 35 -19 38 -18 42 13 2 14 9 29 17 31 8 3 11 0 7 -6 -4 -7 11
-23 36 -38 25 -16 44 -22 46 -16 2 6 30 14 62 18 48 5 59 10 64 28 3 11 6 355
6 764 l0 742 -1126 0 c-747 0 -1123 -3 -1119 -10z m785 -39 c0 -5 -7 -14 -15
-21 -12 -10 -15 -10 -15 2 0 8 3 18 7 21 9 10 23 9 23 -2z m20 -92 c0 -5 -9
-9 -19 -9 -11 0 -26 -3 -35 -6 -10 -4 -16 -1 -16 7 0 9 13 15 35 16 19 1 35
-3 35 -8z m-740 -450 c0 -5 -4 -9 -10 -9 -5 0 -10 7 -10 16 0 8 5 12 10 9 6
-3 10 -10 10 -16z m650 -156 c0 -20 -3 -24 -11 -16 -7 7 -9 19 -6 27 10 24 17
19 17 -11z m0 -135 c0 -35 -4 -58 -8 -51 -7 11 -4 113 4 113 2 0 4 -28 4 -62z
m-3 -150 c-3 -8 -6 -5 -6 6 -1 11 2 17 5 13 3 -3 4 -12 1 -19z m3 -28 c0 -5
-2 -10 -4 -10 -3 0 -8 5 -11 10 -3 6 -1 10 4 10 6 0 11 -4 11 -10z m-590 -15
c0 -8 -6 -15 -14 -15 -17 0 -28 14 -19 24 12 12 33 6 33 -9z m1214 -10 c-4 -8
-8 -15 -10 -15 -2 0 -4 7 -4 15 0 8 4 15 10 15 5 0 7 -7 4 -15z m406 -64 c0
-6 -5 -13 -11 -17 -8 -4 -7 -9 2 -15 10 -6 10 -9 2 -9 -16 0 -26 18 -19 35 6
17 26 20 26 6z m43 -12 c-4 -13 -9 -17 -15 -11 -11 11 -3 32 12 32 4 0 6 -9 3
-21z m67 -4 c0 -10 -10 -15 -32 -15 l-33 0 25 14 c33 19 40 19 40 1z m-1610
-205 c0 -56 -14 -67 -24 -19 -10 50 -7 69 9 69 11 0 15 -12 15 -50z m57 -36
c-3 -3 -12 -4 -19 -1 -8 3 -5 6 6 6 11 1 17 -2 13 -5z m328 -54 c3 -5 1 -10
-4 -10 -6 0 -11 5 -11 10 0 6 2 10 4 10 3 0 8 -4 11 -10z m-248 -62 c-3 -7 -5
-2 -5 12 0 14 2 19 5 13 2 -7 2 -19 0 -25z"/>
<path d="M1985 10140 c-3 -5 -1 -10 4 -10 6 0 11 5 11 10 0 6 -2 10 -4 10 -3
0 -8 -4 -11 -10z"/>
<path d="M7952 10068 c3 -7 13 -15 22 -16 12 -3 17 1 14 10 -3 7 -13 15 -22
16 -12 3 -17 -1 -14 -10z"/>
<path d="M7920 9990 c0 -5 5 -10 10 -10 6 0 10 5 10 10 0 6 -4 10 -10 10 -5 0
-10 -4 -10 -10z"/>
<path d="M7561 9744 c0 -11 3 -14 6 -6 3 7 2 16 -1 19 -3 4 -6 -2 -5 -13z"/>
<path d="M1960 9661 c0 -5 5 -13 10 -16 6 -3 10 -2 10 4 0 5 -4 13 -10 16 -5
3 -10 2 -10 -4z"/>
<path d="M1928 9644 c-9 -14 7 -50 16 -36 4 7 3 19 -2 28 -5 9 -12 13 -14 8z"/>
<path d="M7625 9620 c3 -5 8 -10 11 -10 2 0 4 5 4 10 0 6 -5 10 -11 10 -5 0
-7 -4 -4 -10z"/>
<path d="M1961 9607 c-9 -12 -10 -21 -1 -37 16 -30 32 -12 22 24 -7 25 -9 26
-21 13z"/>
<path d="M7667 9603 c-4 -3 -7 -15 -7 -25 0 -26 24 -17 28 10 3 21 -8 29 -21
15z"/>
<path d="M7950 9595 c0 -8 7 -15 15 -15 8 0 15 7 15 15 0 8 -7 15 -15 15 -8 0
-15 -7 -15 -15z"/>
<path d="M7690 9538 c0 -13 93 -88 110 -88 4 0 10 -6 13 -12 4 -10 7 -10 18 0
11 10 11 12 0 12 -12 0 -43 23 -101 74 -27 23 -40 28 -40 14z"/>
<path d="M1992 9470 c0 -19 2 -27 5 -17 2 9 2 25 0 35 -3 9 -5 1 -5 -18z"/>
<path d="M7871 9396 c-12 -15 -12 -19 2 -33 21 -21 25 -16 18 21 -6 27 -7 28
-20 12z"/>
<path d="M7960 9385 c0 -17 5 -25 13 -22 6 2 12 12 12 22 0 10 -6 20 -12 23
-8 2 -13 -6 -13 -23z"/>
<path d="M2809 9155 c-3 -3 -102 -14 -220 -25 -198 -18 -329 -36 -286 -39 39
-2 64 -46 71 -128 15 -178 34 -325 42 -333 5 -4 52 -4 104 1 52 5 138 12 190
17 l95 7 1 50 c2 80 4 95 12 95 12 0 34 -59 28 -75 -3 -9 0 -15 8 -15 10 0 11
13 4 63 -5 34 -7 81 -4 105 12 95 -21 301 -45 277z"/>
<path d="M3350 9095 c-6 -8 -10 -19 -8 -26 2 -6 9 0 16 15 13 29 10 33 -8 11z"/>
<path d="M7995 9060 c3 -5 15 -10 26 -10 10 0 19 5 19 10 0 6 -12 10 -26 10
-14 0 -23 -4 -19 -10z"/>
<path d="M1120 8990 c0 -51 30 -283 40 -307 9 -23 34 -31 44 -15 2 4 0 41 -5
82 -6 41 -16 118 -22 170 -11 87 -14 95 -34 98 -20 3 -23 -1 -23 -28z"/>
<path d="M8135 8850 c-3 -5 -1 -10 4 -10 6 0 11 5 11 10 0 6 -2 10 -4 10 -3 0
-8 -4 -11 -10z"/>
<path d="M8957 8789 c-3 -12 -1 -19 5 -17 13 5 20 38 8 38 -4 0 -10 -9 -13
-21z"/>
<path d="M8007 8783 c-11 -20 -16 -62 -8 -67 5 -3 11 4 14 17 2 12 8 30 12 40
7 16 -9 25 -18 10z"/>
<path d="M9000 8780 c0 -5 7 -10 16 -10 8 0 12 5 9 10 -3 6 -10 10 -16 10 -5
0 -9 -4 -9 -10z"/>
<path d="M3202 8665 c-14 -31 -16 -53 -3 -39 9 9 24 64 18 64 -2 0 -9 -11 -15
-25z"/>
<path d="M8295 8640 c-3 -5 1 -10 10 -10 9 0 13 5 10 10 -3 6 -8 10 -10 10 -2
0 -7 -4 -10 -10z"/>
<path d="M9975 8640 c-3 -5 -1 -10 4 -10 6 0 11 5 11 10 0 6 -2 10 -4 10 -3 0
-8 -4 -11 -10z"/>
<path d="M8302 8608 c-16 -16 -15 -28 3 -28 8 0 15 9 15 20 0 23 -2 24 -18 8z"/>
<path d="M8630 8566 c0 -9 5 -16 10 -16 6 0 10 4 10 9 0 6 -4 13 -10 16 -5 3
-10 -1 -10 -9z"/>
<path d="M8410 8514 c0 -9 5 -14 12 -12 18 6 21 28 4 28 -9 0 -16 -7 -16 -16z"/>
<path d="M1 5947 l-1 -2237 25 16 c16 10 40 15 72 12 46 -3 48 -2 53 27 4 25
11 31 40 36 19 3 56 18 82 32 26 15 55 27 66 27 10 0 27 7 38 15 10 8 25 15
33 15 8 0 22 7 32 16 10 9 57 26 106 38 l88 23 -1 44 c-1 24 -18 152 -37 284
-20 132 -52 350 -72 485 -19 135 -37 252 -40 260 -2 8 -9 55 -15 105 -8 68
-16 94 -31 108 -18 17 -20 27 -14 77 4 37 1 89 -9 146 -26 146 -135 871 -161
1069 -47 352 -58 432 -67 455 -9 23 -25 124 -98 620 -16 107 -36 240 -45 295
-8 55 -22 138 -29 185 -12 73 -14 -241 -15 -2153z"/>
<path d="M8264 8065 c8 -8 17 -15 20 -15 3 0 3 7 0 15 -4 8 -13 15 -21 15 -12
0 -12 -2 1 -15z"/>
<path d="M2977 8064 c-4 -4 -7 -14 -7 -23 0 -11 3 -12 11 -4 6 6 10 16 7 23
-2 6 -7 8 -11 4z"/>
<path d="M8313 7939 c4 -13 7 -27 7 -31 0 -5 7 -8 16 -8 23 0 14 54 -10 58
-15 3 -18 0 -13 -19z"/>
<path d="M2976 7904 c-10 -38 0 -41 12 -5 6 17 7 31 3 31 -5 0 -12 -12 -15
-26z"/>
<path d="M8324 7778 c7 -44 12 -55 21 -46 9 9 -7 88 -18 88 -6 0 -7 -16 -3
-42z"/>
<path d="M2971 7767 c-13 -34 -14 -47 -3 -47 15 0 31 46 22 61 -7 10 -11 6
-19 -14z"/>
<path d="M8312 7560 c0 -19 2 -27 5 -17 2 9 2 25 0 35 -3 9 -5 1 -5 -18z"/>
<path d="M2841 7420 c-1 -8 -6 -34 -10 -57 -5 -24 -5 -43 0 -43 11 0 22 61 16
91 -2 13 -5 17 -6 9z"/>
<path d="M8325 7370 c-3 -5 1 -10 9 -10 9 0 16 5 16 10 0 6 -4 10 -9 10 -6 0
-13 -4 -16 -10z"/>
<path d="M2777 7100 c-4 -14 -6 -38 -6 -55 l1 -30 9 34 c6 18 9 43 7 55 -3 20
-4 19 -11 -4z"/>
<path d="M1270 6970 c0 -19 3 -21 12 -12 9 9 9 15 0 24 -9 9 -12 7 -12 -12z"/>
<path d="M8385 6849 c-7 -19 11 -69 25 -69 14 0 13 11 -4 51 -11 25 -16 30
-21 18z"/>
<path d="M1866 6748 c-21 -21 -51 -42 -67 -45 -16 -3 -29 -12 -29 -19 0 -11
10 -13 43 -8 31 4 50 15 75 42 29 32 44 74 25 71 -5 -1 -25 -20 -47 -41z"/>
<path d="M1290 6737 c0 -51 7 -77 22 -77 14 0 5 113 -9 118 -9 2 -13 -10 -13
-41z"/>
<path d="M1498 6753 c-10 -2 -18 -9 -18 -14 0 -5 -7 -9 -15 -9 -8 0 -15 -4
-15 -10 0 -5 9 -10 20 -10 11 0 20 -7 20 -15 0 -8 -9 -15 -19 -15 -28 0 -63
-32 -52 -49 7 -11 12 -11 31 2 14 10 34 13 56 10 23 -4 34 -2 34 6 0 7 5 9 10
6 6 -3 10 -15 10 -26 0 -23 13 -24 46 -3 19 13 22 20 13 30 -6 8 -9 23 -6 34
6 24 -10 37 -26 21 -18 -18 -26 -13 -24 17 2 22 -2 27 -23 29 -14 0 -33 -1
-42 -4z"/>
<path d="M1414 6726 c-8 -22 3 -33 18 -18 9 9 9 15 0 24 -9 9 -13 7 -18 -6z"/>
<path d="M10167 6725 c-4 -8 -2 -17 3 -20 6 -4 10 3 10 14 0 25 -6 27 -13 6z"/>
<path d="M1684 6715 c-18 -13 -17 -14 19 -15 38 0 50 13 21 24 -20 8 -17 8
-40 -9z"/>
<path d="M10050 6720 c0 -5 5 -10 11 -10 5 0 7 5 4 10 -3 6 -8 10 -11 10 -2 0
-4 -4 -4 -10z"/>
<path d="M10069 6698 c0 -2 -2 -10 -4 -18 -2 -8 -6 -22 -10 -31 -4 -12 1 -18
17 -22 31 -9 48 10 26 27 -22 16 -23 26 -2 26 8 0 12 5 9 10 -5 9 -34 15 -36
8z"/>
<path d="M8441 6674 c0 -11 3 -14 6 -6 3 7 2 16 -1 19 -3 4 -6 -2 -5 -13z"/>
<path d="M1438 6560 c-7 -24 -3 -38 8 -28 3 4 4 17 2 30 l-3 23 -7 -25z"/>
<path d="M1870 6520 c-13 -8 -13 -10 2 -10 9 0 20 5 23 10 8 13 -5 13 -25 0z"/>
<path d="M1486 6173 c-9 -9 -8 -51 2 -57 4 -2 14 -1 22 4 9 6 24 3 41 -7 29
-17 63 -11 57 10 -3 6 -18 14 -33 15 -16 2 -41 12 -56 23 -14 10 -29 16 -33
12z"/>
<path d="M1510 6009 c0 -5 5 -7 10 -4 6 3 10 8 10 11 0 2 -4 4 -10 4 -5 0 -10
-5 -10 -11z"/>
<path d="M9779 5070 c-42 -10 -34 -80 10 -80 9 0 27 9 41 20 14 11 35 20 48
20 24 0 30 24 10 37 -15 9 -75 11 -109 3z m28 -36 c-3 -3 -12 -4 -19 -1 -8 3
-5 6 6 6 11 1 17 -2 13 -5z"/>
<path d="M9360 5030 c-8 -5 -11 -12 -8 -16 10 -9 58 4 58 16 0 13 -30 13 -50
0z"/>
<path d="M9360 4985 c0 -19 24 -29 47 -21 14 6 14 8 -3 21 -25 19 -44 19 -44
0z"/>
<path d="M10138 4721 c-13 -11 -31 -39 -38 -62 -10 -30 -39 -66 -99 -126 -84
-83 -99 -114 -38 -78 24 15 51 19 114 20 45 0 84 3 88 7 4 3 9 26 11 50 3 39
1 45 -26 60 l-29 17 30 32 c21 22 39 32 60 32 39 0 38 24 -2 32 -20 5 -29 11
-25 21 8 20 -17 17 -46 -5z"/>
<path d="M10040 4720 c-13 -9 -13 -11 0 -20 19 -13 34 -8 38 13 4 19 -15 22
-38 7z"/>
<path d="M10195 4620 c10 -11 24 -20 32 -20 7 0 13 9 13 20 0 16 -7 20 -32 20
-30 0 -31 0 -13 -20z"/>
<path d="M2977 4561 c-3 -11 1 -25 9 -32 11 -9 14 -7 14 10 0 11 0 24 1 28 2
18 -19 12 -24 -6z"/>
<path d="M2894 4545 c-4 -8 -3 -22 0 -31 5 -13 9 -14 21 -4 8 7 15 18 15 25 0
19 -30 27 -36 10z"/>
<path d="M9920 4539 c0 -5 5 -7 10 -4 6 3 10 8 10 11 0 2 -4 4 -10 4 -5 0 -10
-5 -10 -11z"/>
<path d="M2565 4529 c-4 -6 -5 -13 -2 -16 7 -7 27 6 27 18 0 12 -17 12 -25 -2z"/>
<path d="M2416 4511 c-4 -7 -5 -15 -2 -18 9 -9 19 4 14 18 -4 11 -6 11 -12 0z"/>
<path d="M2860 4425 c-7 -9 -11 -18 -8 -20 3 -3 11 1 18 10 7 9 11 18 8 20 -3
3 -11 -1 -18 -10z"/>
<path d="M6655 4270 c3 -5 8 -10 11 -10 2 0 4 5 4 10 0 6 -5 10 -11 10 -5 0
-7 -4 -4 -10z"/>
<path d="M2687 4264 c-7 -8 4 -44 14 -44 12 0 12 37 0 44 -4 3 -11 3 -14 0z"/>
<path d="M6570 4189 c0 -5 5 -7 10 -4 6 3 10 8 10 11 0 2 -4 4 -10 4 -5 0 -10
-5 -10 -11z"/>
<path d="M6730 4104 c0 -14 4 -23 10 -19 6 3 10 15 10 26 0 10 -4 19 -10 19
-5 0 -10 -12 -10 -26z"/>
<path d="M7361 4026 c2 -1 20 -8 39 -14 32 -11 33 -10 16 3 -16 12 -69 23 -55
11z"/>
<path d="M6450 3960 c0 -5 5 -10 10 -10 6 0 10 5 10 10 0 6 -4 10 -10 10 -5 0
-10 -4 -10 -10z"/>
<path d="M6560 3913 c0 -22 2 -25 10 -13 13 20 13 40 0 40 -5 0 -10 -12 -10
-27z"/>
<path d="M7973 3798 c-6 -7 -24 -38 -41 -70 -27 -51 -28 -60 -18 -92 14 -47
41 -49 32 -3 -3 21 3 56 18 102 25 72 27 85 9 63z"/>
<path d="M9328 3663 c7 -3 16 -2 19 1 4 3 -2 6 -13 5 -11 0 -14 -3 -6 -6z"/>
<path d="M0 2173 l0 -1402 47 20 c40 17 48 18 61 6 11 -12 12 -19 2 -38 -8
-14 -9 -24 -3 -26 6 -2 8 -16 5 -30 -4 -21 -2 -25 12 -20 14 5 15 3 6 -13 -6
-11 -6 -21 -1 -25 5 -3 12 -2 14 2 5 9 2 91 -4 113 -12 43 81 -22 132 -92 16
-22 18 -31 8 -46 -16 -26 -115 -74 -206 -102 -73 -22 -73 -22 -73 -57 0 -24 4
-34 13 -30 6 3 37 15 67 27 30 13 82 35 115 50 33 16 80 36 105 46 25 9 48 20
52 23 12 11 77 247 73 267 -2 10 -7 40 -10 65 -5 43 -7 46 -33 42 l-27 -5 25
20 24 20 -17 104 c-10 57 -26 189 -37 293 -11 105 -24 206 -30 225 -15 51 -12
187 5 244 8 26 32 74 53 105 37 54 40 62 46 156 9 126 29 231 67 342 20 60 29
106 29 150 0 67 -14 98 -157 328 -62 100 -65 105 -170 292 -41 73 -81 150 -90
170 -8 21 -30 61 -48 88 -18 28 -37 59 -43 70 -8 15 -11 -356 -12 -1382z"/>
<path d="M1516 3283 c-3 -21 -6 -51 -5 -68 0 -24 4 -17 19 29 10 33 17 63 14
68 -11 18 -22 6 -28 -29z"/>
<path d="M10191 3024 c0 -11 3 -14 6 -6 3 7 2 16 -1 19 -3 4 -6 -2 -5 -13z"/>
<path d="M10193 2950 c-6 -14 -16 -50 -23 -80 -7 -30 -16 -68 -21 -84 -5 -16
-7 -31 -4 -34 7 -7 34 61 28 71 -3 5 5 35 17 67 12 32 20 65 17 72 -3 8 -8 4
-14 -12z"/>
<path d="M8092 2630 c0 -14 4 -38 8 -55 7 -27 8 -27 8 -5 0 14 -4 39 -8 55 -7
27 -8 27 -8 5z"/>
<path d="M8141 2234 c0 -11 3 -14 6 -6 3 7 2 16 -1 19 -3 4 -6 -2 -5 -13z"/>
<path d="M9645 2230 c-3 -6 1 -7 9 -4 18 7 21 14 7 14 -6 0 -13 -4 -16 -10z"/>
<path d="M8142 2185 c0 -16 2 -22 5 -12 2 9 2 23 0 30 -3 6 -5 -1 -5 -18z"/>
<path d="M8165 1968 c2 -29 6 -159 10 -288 3 -129 8 -264 10 -300 16 -280 27
-433 35 -480 5 -30 12 -109 15 -175 4 -66 13 -151 21 -190 8 -38 14 -95 14
-125 0 -96 13 -225 20 -205 10 29 2 211 -15 350 -16 132 -33 334 -40 490 -3
55 -7 111 -10 125 -2 14 -7 99 -10 190 -3 91 -13 260 -21 375 -7 116 -14 227
-14 248 0 20 -4 37 -10 37 -6 0 -8 -22 -5 -52z"/>
<path d="M9406 1986 c-23 -10 -25 -14 -12 -19 17 -7 56 11 56 25 0 10 -9 9
-44 -6z"/>
<path d="M1408 1865 c-41 -52 -51 -78 -18 -45 23 23 37 24 76 10 27 -11 64 -5
64 9 0 4 -18 14 -39 21 -27 9 -41 20 -43 33 -2 17 -10 12 -40 -28z"/>
<path d="M410 1881 c-24 -46 -4 -156 27 -144 8 3 19 0 23 -8 6 -9 11 -5 16 15
10 41 -2 93 -30 127 -24 28 -26 29 -36 10z"/>
<path d="M7948 1839 c-1 -30 -2 -456 -2 -946 l-1 -893 21 0 c20 0 20 4 21 288
1 158 -3 292 -8 298 -5 7 -5 33 1 64 6 30 7 62 4 73 -4 11 -1 23 7 28 14 8 16
160 4 384 -3 66 -10 199 -15 295 -5 96 -12 238 -16 315 -7 148 -13 185 -16 94z
m39 -1006 c-3 -10 -5 -4 -5 12 0 17 2 24 5 18 2 -7 2 -21 0 -30z"/>
<path d="M1529 1750 l-24 -19 34 9 c43 12 64 30 34 30 -11 0 -31 -9 -44 -20z"/>
<path d="M9240 1760 c0 -5 4 -10 9 -10 6 0 13 5 16 10 3 6 -1 10 -9 10 -9 0
-16 -4 -16 -10z"/>
<path d="M9217 1737 c-3 -8 -16 -17 -29 -20 -54 -13 -192 -67 -199 -78 -4 -7
-15 -9 -25 -5 -9 4 -43 2 -73 -4 -84 -17 -87 -18 -65 -34 15 -12 16 -16 5 -30
-12 -14 -10 -16 10 -17 67 -2 181 3 232 10 45 6 57 5 57 -6 0 -7 5 -13 10 -13
6 0 10 8 10 18 0 12 3 13 8 5 5 -8 24 19 52 75 56 109 55 106 40 97 -7 -4 -16
-2 -20 5 -5 9 -9 8 -13 -3z"/>
<path d="M1545 1679 c-33 -24 -71 -68 -81 -93 -9 -22 16 -21 79 5 88 36 91 37
110 43 20 6 23 26 5 26 -7 0 -24 9 -38 20 -32 25 -39 25 -75 -1z"/>
<path d="M1410 1649 c-7 -11 -10 -23 -7 -25 2 -2 9 7 15 21 14 30 7 33 -8 4z"/>
<path d="M45 750 c-3 -5 -15 -10 -26 -10 -12 0 -19 -7 -19 -18 0 -15 6 -18 30
-14 18 3 30 0 30 -7 0 -6 7 -11 15 -11 18 0 20 41 3 58 -15 15 -25 15 -33 2z"/>
<path d="M310 535 c-7 -8 -19 -15 -26 -15 -8 0 -22 -4 -32 -9 -31 -16 -106
-48 -167 -71 -33 -13 -66 -27 -72 -33 -10 -7 -13 -61 -13 -208 l0 -199 99 0
99 0 10 38 c6 20 18 62 27 92 37 124 105 387 105 405 0 19 -14 19 -30 0z"/>
<path d="M8924 288 c6 -29 12 -44 14 -34 5 25 -7 86 -17 86 -4 0 -3 -23 3 -52z"/>
<path d="M1262 232 c-40 -40 -36 -148 8 -187 20 -18 20 -17 20 26 0 24 7 62
14 84 24 69 24 90 -1 93 -12 2 -30 -5 -41 -16z"/>
<path d="M1371 98 c-18 -40 -35 -79 -38 -85 -4 -9 7 -13 36 -13 30 0 43 5 51
19 14 27 12 101 -4 129 -12 22 -14 20 -45 -50z"/>
</g>
</svg>
