<?xml version="1.0" standalone="no"?>
<!DOCTYPE svg PUBLIC "-//W3C//DTD SVG 20010904//EN"
 "http://www.w3.org/TR/2001/REC-SVG-20010904/DTD/svg10.dtd">
<svg version="1.0" xmlns="http://www.w3.org/2000/svg"
 width="45pt" height="45pt" viewBox="0 0 1200.000000 630.000000"
 preserveAspectRatio="xMidYMid meet">

<g transform="translate(0.000000,630.000000) scale(0.100000,-0.100000)"
fill="#cccdce" stroke="none">
<path d="M5830 6069 c-695 -34 -1323 -298 -1862 -782 -262 -234 -515 -578
-682 -928 -269 -562 -350 -1207 -231 -1855 139 -753 619 -1477 1267 -1912 252
-169 670 -362 784 -362 50 0 100 26 124 65 19 31 20 49 20 337 l0 304 -72 -12
c-99 -18 -322 -17 -440 1 -168 25 -277 75 -377 175 -57 56 -71 79 -161 275
-77 166 -163 273 -282 350 -68 45 -131 117 -126 144 6 31 49 42 143 38 96 -5
129 -16 220 -71 97 -58 161 -121 232 -229 155 -236 295 -327 502 -327 107 0
193 14 290 46 l76 25 22 92 c27 111 68 198 124 261 23 26 40 48 38 50 -2 2
-44 9 -94 15 -369 48 -679 180 -885 378 -217 207 -340 518 -370 934 -27 373
56 667 257 906 l44 52 -28 83 c-25 78 -27 94 -27 258 -1 185 11 262 64 402 20
55 23 57 63 63 119 18 452 -105 689 -254 l96 -61 106 25 c412 100 891 97 1312
-6 l82 -20 94 59 c256 162 559 276 683 258 42 -7 45 -9 64 -61 32 -85 59 -203
72 -308 14 -117 1 -248 -35 -361 l-23 -74 54 -67 c163 -204 238 -414 249 -700
17 -412 -99 -820 -298 -1052 -202 -236 -551 -400 -963 -454 -49 -6 -92 -13
-94 -15 -2 -2 15 -24 38 -49 47 -51 101 -157 128 -250 15 -52 18 -129 22 -590
6 -509 7 -531 26 -565 64 -109 186 -87 570 100 185 90 380 213 535 336 120 95
380 360 476 484 436 564 643 1161 644 1856 0 612 -164 1162 -496 1662 -116
173 -223 303 -383 463 -170 170 -262 245 -461 377 -433 289 -947 464 -1430
487 -63 3 -144 7 -180 9 -36 1 -130 -1 -210 -5z"/>
</g>
</svg>
