<?xml version="1.0" standalone="no"?>
<!DOCTYPE svg PUBLIC "-//W3C//DTD SVG 20010904//EN"
 "http://www.w3.org/TR/2001/REC-SVG-20010904/DTD/svg10.dtd">
<svg version="1.0" xmlns="http://www.w3.org/2000/svg"
 width="512.000000pt" height="512.000000pt" viewBox="0 0 512.000000 512.000000"
 preserveAspectRatio="xMidYMid meet">

<g transform="translate(0.000000,512.000000) scale(0.100000,-0.100000)"
fill="#fff" stroke="none">
<path d="M904 4606 c-236 -54 -396 -256 -397 -501 0 -148 52 -266 165 -371
315 -297 839 -66 838 370 0 144 -46 261 -140 356 -30 31 -76 69 -101 83 -110
65 -251 89 -365 63z"/>
<path d="M3492 3319 c-253 -33 -502 -175 -642 -368 l-45 -62 -3 176 -2 175
-410 0 -410 0 0 -1375 0 -1375 408 2 407 3 6 805 c6 897 3 864 76 1003 87 164
235 247 443 247 179 0 311 -81 385 -234 69 -144 68 -132 72 -1024 l4 -802 422
2 422 3 0 950 c0 1061 1 1040 -71 1255 -70 208 -176 352 -347 469 -178 121
-468 182 -715 150z"/>
<path d="M590 1865 l0 -1375 425 0 425 0 0 1375 0 1375 -425 0 -425 0 0 -1375z"/>
</g>
</svg>
