<?xml version="1.0" standalone="no"?>
<!DOCTYPE svg PUBLIC "-//W3C//DTD SVG 20010904//EN"
 "http://www.w3.org/TR/2001/REC-SVG-20010904/DTD/svg10.dtd">
<svg version="1.0" xmlns="http://www.w3.org/2000/svg"
 width="1024.000000pt" height="1024.000000pt" viewBox="0 0 1024.000000 1024.000000"
 preserveAspectRatio="xMidYMid meet">

<g transform="translate(0.000000,1024.000000) scale(0.100000,-0.100000)"
fill="#000000" stroke="none">
<path d="M0 5120 l0 -5120 5120 0 5120 0 0 5120 0 5120 -5120 0 -5120 0 0
-5120z m7520 2080 l0 -50 -2710 0 -2710 0 0 50 0 50 2710 0 2710 0 0 -50z
m1460 -1615 l0 -55 -2965 0 -2965 0 0 55 0 55 2965 0 2965 0 0 -55z m-1460
-1690 l0 -55 -2710 0 -2710 0 0 48 c0 27 3 52 7 55 3 4 1223 7 2710 7 l2703 0
0 -55z"/>
</g>
</svg>
