<?xml version="1.0" standalone="no"?>
<!DOCTYPE svg PUBLIC "-//W3C//DTD SVG 20010904//EN"
 "http://www.w3.org/TR/2001/REC-SVG-20010904/DTD/svg10.dtd">
<svg version="1.0" xmlns="http://www.w3.org/2000/svg"
 width="512.000000pt" height="512.000000pt" viewBox="0 0 512.000000 512.000000"
 preserveAspectRatio="xMidYMid meet">

<g transform="translate(0.000000,512.000000) scale(0.100000,-0.100000)"
fill="#000000" stroke="none">
<path d="M3415 4666 c-257 -43 -457 -142 -605 -303 -198 -214 -310 -545 -310
-918 l0 -97 -42 7 c-528 85 -940 220 -1326 436 -257 144 -456 294 -665 501
-121 121 -131 128 -168 128 -55 0 -81 -31 -112 -133 -40 -128 -50 -193 -50
-322 1 -230 73 -433 229 -640 60 -80 156 -180 227 -237 l49 -38 -79 0 c-90 0
-176 19 -258 55 -139 61 -167 23 -125 -168 53 -241 195 -460 392 -607 95 -70
245 -149 346 -181 96 -31 78 -37 -131 -46 -156 -6 -161 -7 -191 -34 -44 -39
-42 -85 9 -169 135 -223 443 -423 777 -505 56 -14 116 -29 133 -33 l29 -8 -84
-65 c-325 -253 -730 -380 -1252 -396 -115 -3 -208 -9 -208 -13 0 -20 135 -89
330 -168 1193 -482 2355 -313 3275 479 662 569 1046 1409 1048 2290 l0 196 36
19 c76 40 230 165 314 254 91 96 124 146 114 174 -9 23 -42 20 -174 -18 -116
-34 -355 -88 -360 -82 -2 2 25 23 59 47 188 131 400 403 357 456 -18 21 -44
16 -132 -26 -133 -62 -267 -98 -451 -121 l-88 -11 -47 44 c-110 103 -277 192
-439 233 -120 31 -308 40 -427 20z"/>
</g>
</svg>
